<svg width="87" height="33" viewBox="0 0 87 33" xmlns="http://www.w3.org/2000/svg"><title>Icon_yandex_en</title><g fill="none" fill-rule="evenodd"><path fill="#F00" d="M6.894 32.01V21.697L0 3.19h3.476l5.069 14.254L14.39.2h3.185l-7.496 21.614V32.01z"/><path d="M27.323 32.01h-2.66a12.572 12.572 0 0 1-.291-1.612h-.195c-.893 1.126-2.02 1.903-3.786 1.903-2.894 0-4.875-2.175-4.875-6.176 0-4.35 2.214-7.088 7.904-7.088h.447v-1.204c0-2.66-.894-3.787-2.66-3.787-1.613 0-2.991.855-4.04 1.767l-.602-2.796c.932-.757 2.777-1.612 4.835-1.612 3.593 0 5.554 1.534 5.554 6.447v9.555c.02 1.942.214 3.631.37 4.602zm-3.456-10.604h-.37c-3.903 0-4.757 1.729-4.757 4.35 0 2.33.757 3.865 2.37 3.865 1.087 0 2.174-.719 2.737-1.612v-6.603h.02zM34.023 32.01h-3.146V11.64h3.146v1.766h.194c.564-.757 2.098-2.02 3.981-2.02 2.66 0 4.079 1.496 4.079 4.603V31.99h-3.185V16.26c0-1.534-.68-2.058-1.903-2.058-1.32 0-2.467 1.01-3.185 2.02v15.787h.02zm11.36-9.399c0-7.535 2.817-11.205 6.895-11.205.97 0 1.98.33 2.582.758V3.19h3.146v28.818h-2.33l-.233-1.611h-.194c-.893 1.126-2.02 1.903-3.67 1.903-4.02-.02-6.195-3.399-6.195-9.69zm9.477-7.651c-.64-.64-1.32-.971-2.369-.971-2.544 0-3.748 3.826-3.748 7.981 0 4.758.894 7.652 3.185 7.652 1.573 0 2.428-.758 2.952-1.573v-13.09h-.02zM67.91 32.28c-4.194 0-6.777-3.34-6.777-9.593 0-6.525 1.806-11.283 6.117-11.283 3.38 0 5.612 2.544 5.612 9.438v1.728h-8.466c0 4.603 1.281 7.01 3.786 7.01 1.768 0 3.069-.815 3.865-1.378l.718 2.428c-1.262 1.01-2.835 1.65-4.855 1.65zM64.454 19.99h5.204c0-3.476-.563-6.001-2.369-6.001-1.942 0-2.641 2.37-2.835 6zm22.08-8.293l-3.787 9.516 4.234 10.797h-3.263l-3.146-8.389-3.068 8.39h-3.107l4.233-10.526-3.826-9.788h3.263l2.622 7.38 2.777-7.38h3.068z" fill="#000"/></g></svg>
