<?xml version="1.0" encoding="utf-8"?>
<!-- Generator: Adobe Illustrator 25.0.1, SVG Export Plug-In . SVG Version: 6.00 Build 0)  -->
<svg version="1.1" id="Layer_1" xmlns="http://www.w3.org/2000/svg" xmlns:xlink="http://www.w3.org/1999/xlink" x="0px" y="0px"
	 viewBox="0 0 1080 1096" style="enable-background:new 0 0 1080 1096;" xml:space="preserve">
<style type="text/css">
	.st0{display:none;}
	.st1{display:inline;}
	.st2{fill:#263238;}
	.st3{fill:#FBBD9D;}
	.st4{fill:#EC996F;}
	.st5{fill:#455B64;}
	.st6{fill:#F3725F;}
	.st7{fill:#E0E0E0;}
	.st8{opacity:0.3;}
	.st9{fill:#FFFFFF;}
	.st10{fill:#EBEBEB;}
	.st11{fill:#FAFBFB;}
</style>
<g class="st0">
	<g class="st1">
		<path class="st2" d="M939.53,947.62c0,0.27-175.55,0.49-392.06,0.49c-216.58,0-392.09-0.22-392.09-0.49
			c0-0.27,175.51-0.49,392.09-0.49C763.98,947.13,939.53,947.35,939.53,947.62z"/>
	</g>
</g>
<g class="st0">
	<g class="st1">
		<g>
			<g>
				<g>
					<g>
						<g>
							<g>
								<g>
									<g>
										<g>
											<path class="st2" d="M368.13,290.68c1.82-9.11,8.26-13.96,16.84-17.54c8.58-3.57,18.9-2.59,26.65,2.53
												c5.18,3.43,9.41,8.63,15.4,10.28c9.87,2.71,20.69-5.25,30.22-1.54c5.64,2.2,9.27,8.67,8.2,14.63
												c-1.07,5.96-6.72,10.77-12.77,10.87c6.45,1.88,9,10.73,5.69,16.57c-3.31,5.84-10.72,8.46-17.39,7.67
												c-6.67-0.79-12.67-4.41-17.95-8.56c-5.28-4.15-10.08-8.92-15.67-12.64c-5.59-3.72-12.26-6.37-18.92-5.56
												c-9.03,1.09-16.35,8.43-19.84,16.82c-3.5,8.39-3.82,17.73-3.72,26.82c0.1,9.09,0.54,18.31-1.56,27.15
												c-0.25,1.04-0.65,2.21-1.65,2.59c-1.44,0.55-2.79-0.93-3.61-2.24c-9.26-14.74-15.58-31.32-18.49-48.49
												c-1.69-9.97-2.05-19.49,2.9-28.3C347.4,292.95,360.93,285.8,368.13,290.68"/>
										</g>
									</g>
								</g>
							</g>
						</g>
					</g>
				</g>
				<g>
					<g>
						<g>
							<g>
								<g>
									<g>
										<g>
											<g>
												<g>
													<g>
														<g>
															<g>
																<g>
																	<g>
																		<g>
																			<g>
																				<g>
																					<g>
																						<g>
																							<g>
																								<path class="st3" d="M353.39,333.87l1.91,92.81c0.36,17.33,9.06,35.26,36.43,33.44l0,0
																									c23.63-3.36,24.25-19.94,24.13-40.49c0,0-0.03,0.79,0,0c0,0,25.89-2.97,27.24-28.69
																									c0.65-12.43-0.1-38.13-1.04-61.38c-1.01-24.97-21.06-44.96-46.03-45.96l-2.48-0.1
																									C366.72,284,352.15,307.06,353.39,333.87z"/>
																							</g>
																						</g>
																					</g>
																				</g>
																			</g>
																		</g>
																	</g>
																</g>
															</g>
														</g>
													</g>
												</g>
											</g>
										</g>
										<g>
											<g>
												<g>
													<g>
														<g>
															<g>
																<g>
																	<g>
																		<g>
																			<g>
																				<g>
																					<g>
																						<g>
																							<g>
																								<path class="st4" d="M415.86,419.63c0,0-16.26,0.3-33.1-11.24c0,0,7.3,20.28,33.07,18.98L415.86,419.63z"/>
																							</g>
																						</g>
																					</g>
																				</g>
																			</g>
																		</g>
																	</g>
																</g>
															</g>
														</g>
													</g>
												</g>
											</g>
										</g>
									</g>
								</g>
							</g>
							<g>
								<g>
									<g>
										<g>
											<g>
												<g>
													<g>
														<g>
															<g>
																<g>
																	<g>
																		<g>
																			<g>
																				<g>
																					<g>
																						<g>
																							<g>
																								<g>
																									<g>
																										<g>
																											<path class="st2" d="M432.95,355.42c-0.01,1.94-1.66,3.54-3.69,3.57c-2.03,0.03-3.66-1.52-3.66-3.46
																												c0.01-1.94,1.66-3.54,3.69-3.57C431.32,351.92,432.96,353.47,432.95,355.42z"/>
																										</g>
																									</g>
																								</g>
																							</g>
																						</g>
																					</g>
																				</g>
																			</g>
																		</g>
																	</g>
																</g>
															</g>
														</g>
													</g>
													<g>
														<g>
															<g>
																<g>
																	<g>
																		<g>
																			<g>
																				<g>
																					<g>
																						<g>
																							<g>
																								<g>
																									<g>
																										<g>
																											<g>
																												<path class="st2" d="M436.03,341.97c-0.47,0.46-3.18-1.71-7.13-1.86c-3.95-0.2-6.93,1.71-7.34,1.21
																													c-0.2-0.22,0.3-1.07,1.6-1.94c1.28-0.87,3.44-1.67,5.9-1.56c2.46,0.11,4.5,1.1,5.65,2.08
																													C435.89,340.88,436.27,341.76,436.03,341.97z"/>
																											</g>
																										</g>
																									</g>
																								</g>
																							</g>
																						</g>
																					</g>
																				</g>
																			</g>
																		</g>
																	</g>
																</g>
															</g>
														</g>
													</g>
												</g>
												<g>
													<g>
														<g>
															<g>
																<g>
																	<g>
																		<g>
																			<g>
																				<g>
																					<g>
																						<g>
																							<g>
																								<g>
																									<g>
																										<g>
																											<path class="st2" d="M396.31,353.81c-0.01,1.94-1.66,3.54-3.69,3.57c-2.03,0.03-3.66-1.52-3.66-3.46
																												c0.01-1.94,1.66-3.54,3.69-3.57C394.68,350.32,396.32,351.87,396.31,353.81z"/>
																										</g>
																									</g>
																								</g>
																							</g>
																						</g>
																					</g>
																				</g>
																			</g>
																		</g>
																	</g>
																</g>
															</g>
														</g>
													</g>
													<g>
														<g>
															<g>
																<g>
																	<g>
																		<g>
																			<g>
																				<g>
																					<g>
																						<g>
																							<g>
																								<g>
																									<g>
																										<g>
																											<g>
																												<path class="st2" d="M397.14,341.15c-0.48,0.46-3.18-1.71-7.13-1.86c-3.95-0.2-6.93,1.71-7.34,1.21
																													c-0.2-0.22,0.29-1.07,1.6-1.94c1.28-0.87,3.44-1.67,5.9-1.57c2.46,0.11,4.5,1.1,5.65,2.08
																													C396.99,340.06,397.37,340.95,397.14,341.15z"/>
																											</g>
																										</g>
																									</g>
																								</g>
																							</g>
																						</g>
																					</g>
																				</g>
																			</g>
																		</g>
																	</g>
																</g>
															</g>
														</g>
													</g>
												</g>
												<g>
													<g>
														<g>
															<g>
																<g>
																	<g>
																		<g>
																			<g>
																				<g>
																					<g>
																						<g>
																							<g>
																								<g>
																									<g>
																										<g>
																											<path class="st2" d="M410.32,371.05c-0.01-0.23,2.47-0.55,6.47-0.9c1.01-0.06,1.98-0.23,2.18-0.91
																												c0.27-0.72-0.11-1.83-0.55-3.02c-0.85-2.48-1.74-5.08-2.68-7.81c-3.71-11.11-6.35-20.23-5.9-20.38
																												c0.45-0.15,3.82,8.74,7.53,19.85c0.89,2.74,1.74,5.35,2.55,7.85c0.34,1.16,0.94,2.49,0.37,3.98
																												c-0.3,0.74-1.06,1.26-1.72,1.41c-0.66,0.17-1.22,0.16-1.72,0.17
																												C412.81,371.35,410.32,371.27,410.32,371.05z"/>
																										</g>
																									</g>
																								</g>
																							</g>
																						</g>
																					</g>
																				</g>
																			</g>
																		</g>
																	</g>
																</g>
															</g>
														</g>
													</g>
												</g>
											</g>
										</g>
									</g>
									<g>
										<g>
											<g>
												<g>
													<g>
														<g>
															<g>
																<g>
																	<g>
																		<g>
																			<g>
																				<g>
																					<g>
																						<g>
																							<path class="st2" d="M398.78,325.7c-0.43,1.06-4.36,0.39-9.02,0.77c-4.67,0.28-8.46,1.49-9.04,0.5
																								c-0.26-0.47,0.44-1.46,1.99-2.44c1.54-0.98,3.97-1.87,6.77-2.07c2.8-0.19,5.33,0.35,6.99,1.11
																								C398.14,324.31,398.97,325.19,398.78,325.7z"/>
																						</g>
																					</g>
																				</g>
																			</g>
																		</g>
																	</g>
																</g>
															</g>
														</g>
													</g>
												</g>
											</g>
										</g>
									</g>
									<g>
										<g>
											<g>
												<g>
													<g>
														<g>
															<g>
																<g>
																	<g>
																		<g>
																			<g>
																				<g>
																					<g>
																						<g>
																							<path class="st2" d="M435.04,330.46c-0.73,0.87-3.42-0.17-6.69-0.35c-3.27-0.29-6.07,0.36-6.67-0.6
																								c-0.26-0.47,0.21-1.35,1.46-2.15c1.23-0.8,3.25-1.41,5.5-1.25c2.25,0.16,4.17,1.05,5.27,2.02
																								C435.02,329.1,435.36,330.04,435.04,330.46z"/>
																						</g>
																					</g>
																				</g>
																			</g>
																		</g>
																	</g>
																</g>
															</g>
														</g>
													</g>
												</g>
											</g>
										</g>
									</g>
								</g>
							</g>
						</g>
					</g>
				</g>
				<g>
					<g>
						<g>
							<g>
								<g>
									<g>
										<g>
											<g>
												<g>
													<g>
														<g>
															<g>
																<g>
																	<g>
																		<g>
																			<path class="st3" d="M354.73,353.01c-0.43-0.21-17.47-5.93-17.61,11.68c-0.14,17.61,17.57,14.12,17.61,13.62
																				C354.76,377.79,354.73,353.01,354.73,353.01z"/>
																		</g>
																	</g>
																</g>
															</g>
														</g>
													</g>
												</g>
											</g>
										</g>
									</g>
								</g>
							</g>
						</g>
					</g>
					<g>
						<g>
							<g>
								<g>
									<g>
										<g>
											<g>
												<g>
													<g>
														<g>
															<g>
																<g>
																	<g>
																		<g>
																			<g>
																				<path class="st4" d="M349.4,371.58c-0.08-0.06-0.31,0.21-0.83,0.45c-0.51,0.23-1.38,0.38-2.29,0.03
																					c-1.85-0.7-3.4-3.66-3.46-6.84c-0.03-1.6,0.32-3.13,0.89-4.39c0.55-1.28,1.39-2.18,2.33-2.34
																					c0.93-0.21,1.59,0.36,1.8,0.86c0.23,0.49,0.12,0.84,0.21,0.88c0.05,0.04,0.38-0.29,0.24-1.02
																					c-0.07-0.35-0.27-0.77-0.68-1.11c-0.42-0.35-1.04-0.53-1.69-0.46c-1.36,0.08-2.59,1.32-3.23,2.71
																					c-0.71,1.39-1.14,3.1-1.1,4.9c0.08,3.55,1.88,6.89,4.42,7.64c1.24,0.33,2.27-0.03,2.81-0.44
																					C349.36,372.01,349.46,371.62,349.4,371.58z"/>
																			</g>
																		</g>
																	</g>
																</g>
															</g>
														</g>
													</g>
												</g>
											</g>
										</g>
									</g>
								</g>
							</g>
						</g>
					</g>
				</g>
				<g>
					<g>
						<path class="st2" d="M443.33,305.61c-2.09-5.15-6.01-9.35-10.3-12.88c-9.26-7.59-20.81-12.55-32.77-13.21
							c-11.96-0.66-24.25,3.14-33.23,11.06c-7.19,6.34-12.06,15.07-14.53,24.32c-2.47,9.26-2.62,19.03-1.31,28.53
							c0.58,4.17,1.53,8.51,4.31,11.66c1.74,1.97,4.8,3.34,6.95,1.83c1.26-0.89,1.78-2.49,2.21-3.98c3.93-13.44,7.85-27.9,3.4-41.17
							c3.54-4.25,7.62-8.17,12.56-10.65c4.94-2.48,10.85-3.38,16.07-1.55c7.75,2.73,12.27,10.55,18.32,16.11
							c8.64,7.94,21.26,11.32,32.71,8.75L443.33,305.61z"/>
					</g>
				</g>
			</g>
			<g>
				<g>
					<g>
						<g>
							<g>
								<g>
									<path class="st4" d="M412.26,382.06c-0.51,1.59-1.03,3.2-1.97,4.58c-0.94,1.38-2.37,2.52-4.02,2.71
										c-1.77,0.2-3.54-0.73-4.63-2.14c-1.09-1.41-1.54-3.22-1.58-5c-0.03-1.61,0.57-3.57,2.15-3.86c0.66-0.12,1.33,0.09,1.96,0.3
										c2.86,0.95,5.73,1.89,8.59,2.84"/>
								</g>
							</g>
						</g>
					</g>
				</g>
				<g>
					<g>
						<g>
							<g>
								<g>
									<g>
										<path class="st2" d="M409.38,389.17c-0.06-0.26-1.85,0.61-4.5-0.26c-1.28-0.42-2.72-1.33-3.58-2.84
											c-0.86-1.5-1.14-3.58-0.47-5.47c0.15-0.47,0.4-0.91,0.65-1.3c0.31-0.37,0.25-0.35,0.61-0.32
											c0.35,0.07,0.91,0.29,1.38,0.44c0.48,0.16,0.95,0.32,1.41,0.47c1.84,0.61,3.5,1.13,4.91,1.55
											c2.81,0.84,4.58,1.27,4.65,1.07c0.07-0.19-1.58-0.97-4.3-2.07c-1.36-0.55-2.99-1.18-4.8-1.86
											c-0.46-0.17-0.92-0.34-1.4-0.52c-0.5-0.17-0.89-0.36-1.57-0.53c-0.33-0.07-0.8-0.09-1.24,0.12
											c-0.43,0.21-0.69,0.53-0.87,0.79c-0.34,0.52-0.64,1.06-0.84,1.65c-0.83,2.35-0.43,4.87,0.7,6.68
											c1.15,1.85,2.97,2.81,4.48,3.15c1.54,0.36,2.83,0.17,3.64-0.1C409.04,389.56,409.42,389.25,409.38,389.17z"/>
									</g>
								</g>
							</g>
						</g>
					</g>
				</g>
			</g>
		</g>
		<g>
			<g>
				<g>
					<path class="st5" d="M462.53,288.76c0.04,0,0.1,0.4,0.18,1.19c0.01,0.78,0.03,1.97-0.37,3.43c-0.69,2.88-3.02,7.01-7.77,9.74
						c-4.73,2.77-11.65,3.18-18.43,1.15c-6.89-1.95-13.43-6.31-20.34-10.37c-6.88-4.05-14.15-7.16-21.07-6.87
						c-6.91,0.19-12.68,3.34-16.66,6.65c-4.03,3.35-6.53,6.88-8.04,9.39c-1.49,2.54-2.09,4.07-2.2,4.02
						c-0.04-0.01,0.09-0.4,0.38-1.13c0.26-0.74,0.76-1.78,1.44-3.11c1.42-2.6,3.84-6.28,7.91-9.78c4-3.46,9.92-6.81,17.14-7.08
						c7.24-0.35,14.75,2.85,21.68,6.94c6.97,4.09,13.4,8.41,20.06,10.35c6.57,2.03,13.2,1.7,17.74-0.84
						c4.59-2.51,6.94-6.4,7.73-9.15C462.76,290.45,462.38,288.76,462.53,288.76z"/>
				</g>
			</g>
		</g>
		<g>
			<g>
				<g>
					<path class="st5" d="M341.58,325.42c-0.12-0.03,0.15-1.9,1.35-4.68c1.17-2.78,3.37-6.45,6.71-9.67c1.66-1.62,3.44-2.94,5.15-4
						c1.71-1.06,3.5-1.76,5.09-1.82c1.59-0.07,2.84,0.42,3.55,0.92c0.72,0.51,0.95,0.95,0.9,0.99c-0.07,0.16-1.49-1.43-4.39-1.11
						c-2.82,0.31-6.28,2.8-9.52,5.84c-3.23,3.11-5.45,6.57-6.78,9.19C342.3,323.7,341.76,325.48,341.58,325.42z"/>
				</g>
			</g>
		</g>
		<g>
			<g>
				<g>
					<path class="st5" d="M344.05,341.03c-0.12-0.04,0.3-1.89,1.65-4.62c1.34-2.73,3.74-6.28,7.21-9.42
						c3.48-3.13,7.25-5.16,10.11-6.21c2.86-1.06,4.74-1.29,4.77-1.17c0.05,0.19-1.75,0.69-4.46,1.92c-2.71,1.22-6.29,3.29-9.65,6.31
						c-3.35,3.04-5.78,6.38-7.27,8.95C344.91,339.37,344.23,341.1,344.05,341.03z"/>
				</g>
			</g>
		</g>
	</g>
	<g class="st1">
		<polygon class="st3" points="473.58,595.38 567.26,633.11 552.32,659.87 446.09,643.58 		"/>
	</g>
	<g class="st1">
		<g>
			<path class="st6" d="M473.77,486.34c0.48,26.36-0.36,89.84-0.36,89.84l15.02,23.6l-26.28,35.4l-30.36,4.27l-3.02,23.55
				c0,0-53.19,23.81-95.74,9.37c-33.11-11.23-71.81,26.53-71.81,26.53s-3.53-6.17,2.21-59.43c5.47-50.76,15.04-134.55,15.04-134.55
				l30.6-76.54l45.97-7.97c19.25,32.73,57.74,32.91,60.83,13.02l30.56,12.72c8.9,3.71,16.54,10.06,21.39,18.39
				C471.09,470.17,473.6,477.38,473.77,486.34z"/>
		</g>
		<g>
			<g>
				<path class="st2" d="M447.28,494.37c0.27,0.03-2.96,30.26-7.21,67.52c-4.25,37.27-7.91,67.45-8.18,67.42
					c-0.27-0.03,2.96-30.26,7.21-67.53C443.35,524.52,447.01,494.34,447.28,494.37z"/>
			</g>
		</g>
		<g>
			<g>
				<path class="st2" d="M432.12,562.61c0.15,0.23-14.87,10.14-33.54,22.14c-18.67,12-33.92,21.55-34.07,21.32
					c-0.15-0.23,14.87-10.14,33.54-22.14C416.72,571.93,431.97,562.38,432.12,562.61z"/>
			</g>
		</g>
	</g>
	<g class="st1">
		<polygon class="st2" points="378.38,947.62 360.73,947.62 350.64,828.91 378.38,828.91 		"/>
	</g>
	<g class="st1">
		<polygon class="st2" points="240.87,947.62 223.22,947.62 213.13,828.91 240.87,828.91 		"/>
	</g>
	<g class="st1">
		<polygon class="st2" points="573.49,947.62 555.84,947.62 545.75,828.91 573.49,828.91 		"/>
	</g>
	<g class="st1">
		<g>
			<path class="st5" d="M289.27,723.14l16.82-257.34H147.4c-12.07,0-21.19,10.96-18.99,22.83l63.84,344.72
				c20.31-0.29,390.54,0,390.54,0v-110.2H289.27z"/>
		</g>
		<g>
			<g>
				<path class="st2" d="M524.7,795.42c0,0.27-35.18,0.49-78.56,0.49c-43.4,0-78.57-0.22-78.57-0.49c0-0.27,35.17-0.49,78.57-0.49
					C489.52,794.94,524.7,795.15,524.7,795.42z"/>
			</g>
		</g>
	</g>
	<g class="st1">
		<g>
			<g>
				<g>
					<g>
						<g>
							<g>
								<g>
									<g>
										<g>
											<g>
												<g>
													<g>
														<g>
															<g>
																<g>
																	<path class="st6" d="M665.22,855.3l11.42,54.48c0,0,59.22,6.69,62.31,16.55l-104.84,25.95l-21.28-84.16
																		L665.22,855.3z"/>
																</g>
															</g>
														</g>
													</g>
												</g>
											</g>
										</g>
									</g>
								</g>
							</g>
						</g>
					</g>
				</g>
			</g>
			<g>
				<g>
					<g>
						<g>
							<g>
								<g>
									<g>
										<g>
											<g>
												<g>
													<g>
														<g>
															<g>
																<g>
																	<g>
																		<path class="st7" d="M643.1,913.26c-1.89,1.06-2.73,3.69-1.75,5.62c0.98,1.93,3.64,2.81,5.55,1.78
																			c1.91-1.02,3.01-4.15,1.82-5.96c-1.19-1.81-4.37-2.67-5.98-1.22"/>
																	</g>
																</g>
															</g>
														</g>
													</g>
												</g>
											</g>
										</g>
									</g>
								</g>
							</g>
						</g>
					</g>
				</g>
			</g>
			<g>
				<g>
					<g>
						<g>
							<g>
								<g>
									<g>
										<g>
											<g>
												<g>
													<g>
														<g>
															<g>
																<g>
																	<path class="st7" d="M634.58,954.5l-2.07-8.15l100.99-24.31c0,0,5.17,0.88,5.46,4.29L634.58,954.5z"/>
																</g>
															</g>
														</g>
													</g>
												</g>
											</g>
										</g>
									</g>
								</g>
							</g>
						</g>
					</g>
				</g>
			</g>
			<g>
				<g>
					<g>
						<g>
							<g>
								<g>
									<g>
										<g>
											<g>
												<g>
													<g>
														<g>
															<g>
																<g>
																	<g>
																		<path class="st2" d="M678.21,908.83c0.11,0.52-2.39,1.38-4.5,3.65c-2.17,2.21-2.92,4.75-3.44,4.67
																			c-0.5,0.02-0.49-3.23,2.11-5.94C674.96,908.49,678.2,908.33,678.21,908.83z"/>
																	</g>
																</g>
															</g>
														</g>
													</g>
												</g>
											</g>
										</g>
									</g>
								</g>
							</g>
						</g>
					</g>
				</g>
			</g>
			<g>
				<g>
					<g>
						<g>
							<g>
								<g>
									<g>
										<g>
											<g>
												<g>
													<g>
														<g>
															<g>
																<g>
																	<g>
																		<path class="st2" d="M690.33,910.65c0.24,0.47-1.76,1.89-2.96,4.48c-1.28,2.56-1.14,5.01-1.65,5.11
																			c-0.46,0.2-1.56-2.71,0-5.91C687.24,911.13,690.2,910.17,690.33,910.65z"/>
																	</g>
																</g>
															</g>
														</g>
													</g>
												</g>
											</g>
										</g>
									</g>
								</g>
							</g>
						</g>
					</g>
				</g>
			</g>
			<g>
				<g>
					<g>
						<g>
							<g>
								<g>
									<g>
										<g>
											<g>
												<g>
													<g>
														<g>
															<g>
																<g>
																	<g>
																		<path class="st2" d="M699.83,922.27c-0.44,0.22-1.78-2.16-1.16-5.29c0.6-3.13,2.74-4.84,3.06-4.46
																			c0.39,0.35-0.79,2.24-1.26,4.82C699.94,919.9,700.33,922.09,699.83,922.27z"/>
																	</g>
																</g>
															</g>
														</g>
													</g>
												</g>
											</g>
										</g>
									</g>
								</g>
							</g>
						</g>
					</g>
				</g>
			</g>
			<g>
				<g>
					<g>
						<g>
							<g>
								<g>
									<g>
										<g>
											<g>
												<g>
													<g>
														<g>
															<g>
																<g>
																	<g>
																		<path class="st2" d="M674.23,896.7c-0.1,0.52-2.62,0.39-5.47,1.31c-2.86,0.86-4.87,2.38-5.25,2.01
																			c-0.39-0.3,1.34-2.74,4.71-3.76C671.58,895.2,674.38,896.24,674.23,896.7z"/>
																	</g>
																</g>
															</g>
														</g>
													</g>
												</g>
											</g>
										</g>
									</g>
								</g>
							</g>
						</g>
					</g>
				</g>
			</g>
		</g>
		<g class="st8">
			<g>
				<g>
					<g>
						<g>
							<g>
								<g>
									<g>
										<g>
											<g>
												<g>
													<g>
														<g>
															<g>
																<path d="M665.22,855.3l11.42,54.48c0,0,59.22,6.69,62.31,16.55L634.58,954.5l-21.75-86.38L665.22,855.3z"/>
															</g>
														</g>
													</g>
												</g>
											</g>
										</g>
									</g>
								</g>
							</g>
						</g>
					</g>
				</g>
			</g>
		</g>
	</g>
	<g class="st1">
		<path class="st2" d="M609.51,691.02l66.37,192.68l-57.32,21.2L512.94,693.68l-175.48-27.45l105.32-28.33l150.22,37.95
			C600.72,677.79,606.92,683.5,609.51,691.02z"/>
	</g>
	<g class="st1">
		<g>
			<g>
				<g>
					<g>
						<g>
							<g>
								<g>
									<g>
										<g>
											<g>
												<g>
													<g>
														<g>
															<g>
																<path class="st6" d="M663.39,833.89l37.91,41.63c0,0,55.04-24.55,62.8-17.54l-78.08,76.39l-61.72-62.44
																	L663.39,833.89z"/>
															</g>
														</g>
													</g>
												</g>
											</g>
										</g>
									</g>
								</g>
							</g>
						</g>
					</g>
				</g>
			</g>
		</g>
		<g>
			<g>
				<g>
					<g>
						<g>
							<g>
								<g>
									<g>
										<g>
											<g>
												<g>
													<g>
														<g>
															<g>
																<g>
																	<path class="st7" d="M673.84,895.76c-1.11,1.89-0.49,4.61,1.36,5.8c1.84,1.18,4.62,0.58,5.76-1.29
																		c1.14-1.87,0.5-5.16-1.47-6.13c-1.97-0.97-5.18-0.08-5.84,2.01"/>
																</g>
															</g>
														</g>
													</g>
												</g>
											</g>
										</g>
									</g>
								</g>
							</g>
						</g>
					</g>
				</g>
			</g>
		</g>
		<g>
			<g>
				<g>
					<g>
						<g>
							<g>
								<g>
									<g>
										<g>
											<g>
												<g>
													<g>
														<g>
															<g>
																<path class="st7" d="M687.56,936.08l-5.99-6.04l75.55-72.99c0,0,4.96-1.89,6.96,0.94L687.56,936.08z"/>
															</g>
														</g>
													</g>
												</g>
											</g>
										</g>
									</g>
								</g>
							</g>
						</g>
					</g>
				</g>
			</g>
		</g>
		<g>
			<g>
				<g>
					<g>
						<g>
							<g>
								<g>
									<g>
										<g>
											<g>
												<g>
													<g>
														<g>
															<g>
																<g>
																	<path class="st2" d="M702.17,873.89c0.36,0.39-1.38,2.43-2.05,5.49c-0.76,3.04-0.11,5.64-0.61,5.83
																		c-0.42,0.27-2.09-2.57-1.2-6.26C699.16,875.26,701.91,873.46,702.17,873.89z"/>
																</g>
															</g>
														</g>
													</g>
												</g>
											</g>
										</g>
									</g>
								</g>
							</g>
						</g>
					</g>
				</g>
			</g>
		</g>
		<g>
			<g>
				<g>
					<g>
						<g>
							<g>
								<g>
									<g>
										<g>
											<g>
												<g>
													<g>
														<g>
															<g>
																<g>
																	<path class="st2" d="M713.67,869.26c0.45,0.28-0.57,2.55-0.29,5.43c0.2,2.89,1.58,4.95,1.18,5.31
																		c-0.3,0.41-2.75-1.56-3.03-5.15C711.22,871.26,713.31,868.91,713.67,869.26z"/>
																</g>
															</g>
														</g>
													</g>
												</g>
											</g>
										</g>
									</g>
								</g>
							</g>
						</g>
					</g>
				</g>
			</g>
		</g>
		<g>
			<g>
				<g>
					<g>
						<g>
							<g>
								<g>
									<g>
										<g>
											<g>
												<g>
													<g>
														<g>
															<g>
																<g>
																	<path class="st2" d="M727.91,874.51c-0.27,0.42-2.66-0.97-3.73-4.01c-1.09-3.04-0.09-5.62,0.38-5.46
																		c0.52,0.1,0.46,2.36,1.37,4.84C726.79,872.39,728.26,874.11,727.91,874.51z"/>
																</g>
															</g>
														</g>
													</g>
												</g>
											</g>
										</g>
									</g>
								</g>
							</g>
						</g>
					</g>
				</g>
			</g>
		</g>
		<g>
			<g>
				<g>
					<g>
						<g>
							<g>
								<g>
									<g>
										<g>
											<g>
												<g>
													<g>
														<g>
															<g>
																<g>
																	<path class="st2" d="M692.48,865.36c0.18,0.5-2.08,1.69-4.1,3.94c-2.06,2.21-3.03,4.58-3.55,4.45
																		c-0.49-0.06-0.23-3.07,2.17-5.7C689.4,865.41,692.37,864.88,692.48,865.36z"/>
																</g>
															</g>
														</g>
													</g>
												</g>
											</g>
										</g>
									</g>
								</g>
							</g>
						</g>
					</g>
				</g>
			</g>
		</g>
	</g>
	<g class="st1">
		<g>
			<path class="st2" d="M318.57,747.42l153.01-0.65L641.4,904.9l52.79-49.16c0,0-144.19-162.72-160.85-179.5
				c-16.67-16.79-177.17-27.97-177.17-27.97l-96.49,41.92l2.19,10.95C267.26,728.13,291.03,747.53,318.57,747.42z"/>
		</g>
		<g>
			<g>
				<path class="st5" d="M468.02,726.67c0.27-0.03,1,4.14,1.65,9.33c0.64,5.19,0.95,9.41,0.68,9.45c-0.27,0.03-1-4.14-1.65-9.33
					C468.06,730.93,467.75,726.7,468.02,726.67z"/>
			</g>
		</g>
		<g>
			<g>
				<path class="st5" d="M676.56,836.12c0.05,0.05-0.63,0.84-1.9,2.22c-1.27,1.39-3.13,3.36-5.47,5.78
					c-4.67,4.83-11.22,11.41-18.64,18.48c-7.42,7.08-14.29,13.32-19.34,17.75c-2.52,2.22-4.58,3.99-6.03,5.19
					c-1.44,1.2-2.26,1.84-2.31,1.79c-0.04-0.05,0.69-0.79,2.06-2.08c1.5-1.4,3.46-3.22,5.82-5.42c4.93-4.56,11.72-10.87,19.13-17.94
					c7.41-7.07,14.03-13.56,18.82-18.26c2.3-2.25,4.22-4.13,5.68-5.56C675.74,836.77,676.51,836.07,676.56,836.12z"/>
			</g>
		</g>
		<g>
			<g>
				<path class="st5" d="M585.2,852.57c0,0,0.36,0.29,1.02,0.88c0.68,0.62,1.65,1.5,2.92,2.66c2.58,2.37,6.34,5.84,11.2,10.3
					c9.73,9.01,23.81,22.05,41.3,38.24h-0.47c14.99-14,32.9-30.72,52.72-49.23l-0.04,0.6c-22.24-25.94-48.89-54.35-76.8-84.56
					c-12.34-13.34-24.38-26.38-35.89-39.08c-11.5-12.71-22.49-25.07-32.51-37.23c-4.99-6.06-9.95-11.97-15.86-16.46
					c-2.93-2.26-6.1-4.1-9.41-5.47c-3.31-1.39-6.73-2.34-10.13-3.11c-6.81-1.47-13.54-2.33-19.95-3.37
					c-6.42-1-12.59-1.96-18.47-2.87c-23.51-3.68-42.54-6.66-55.72-8.73c-6.55-1.05-11.65-1.86-15.14-2.42
					c-1.71-0.28-3.02-0.5-3.93-0.65c-0.89-0.15-1.34-0.26-1.34-0.26s0.46,0.04,1.35,0.16c0.92,0.13,2.23,0.32,3.95,0.56
					c3.5,0.52,8.6,1.27,15.17,2.24c13.2,1.99,32.24,4.87,55.77,8.42c5.89,0.9,12.05,1.83,18.48,2.81
					c6.42,1.02,13.13,1.86,20.01,3.32c3.43,0.77,6.9,1.72,10.27,3.13c3.37,1.4,6.63,3.27,9.6,5.56
					c6.01,4.56,11.02,10.51,16.03,16.57c10.03,12.12,21.02,24.46,32.53,37.16c11.51,12.69,23.55,25.72,35.9,39.06
					c27.91,30.21,54.53,58.65,76.76,84.65l0.27,0.32l-0.31,0.29c-19.87,18.46-37.83,35.14-52.85,49.09l-0.23,0.22l-0.23-0.22
					c-17.4-16.29-31.4-29.4-41.09-38.47c-4.8-4.52-8.52-8.03-11.07-10.44c-1.24-1.18-2.19-2.09-2.86-2.73
					C585.51,852.9,585.2,852.57,585.2,852.57z"/>
			</g>
		</g>
	</g>
	<g class="st1">
		<g>
			<path class="st3" d="M450.92,625.08l-46.16,15.56l-84.99-34.57l-45.37,42.19l121.23,21.76c4.09,0.67,8.28,0.37,12.23-0.87
				l35.74-11.23c0,0,11.68,13.2,14.12,13.39c2.44,0.2,7.36-0.14,5.02-4.5c-2.35-4.36-8.35-11.95-8.35-11.95s16.41,13.54,18.27,11.73
				c1.86-1.81,1.12-6-1.79-9.42c-2.91-3.42-12.56-14.49-12.56-14.49s20.23,16.75,22.15,14.21c1.92-2.54,2.88-6.55-5.23-14.32
				c-5.32-5.1-13.52-12.38-17.82-16.18C455.64,624.82,453.16,624.32,450.92,625.08z"/>
		</g>
		<g>
			<g>
				<path class="st4" d="M403.51,641.05c0.19,0.19-1.87,2.55-4.41,5.45c-2.54,2.9-4.6,5.25-4.82,5.09c-0.21-0.16,1.52-2.8,4.09-5.73
					C400.93,642.93,403.32,640.86,403.51,641.05z"/>
			</g>
		</g>
		<g>
			<g>
				<path class="st4" d="M471.59,658.04c-0.1,0.12-1.69-1.35-3.89-3.98c-2.23-2.61-5.18-6.32-8.51-10.34
					c-3.4-3.84-6.26-8.23-9.95-7.51c-1.65,0.09-2.92,0.64-3.71,1.13c-0.8,0.49-1.18,0.87-1.24,0.81c-0.04-0.03,0.25-0.51,1.02-1.12
					c0.76-0.61,2.09-1.31,3.87-1.5c0.89-0.09,1.89-0.03,2.91,0.24c0.51,0.12,1.04,0.39,1.54,0.73c0.43,0.35,0.9,0.7,1.3,1.11
					c1.67,1.59,3.31,3.48,5,5.49c3.35,4.04,6.21,7.81,8.3,10.53c0.93,1.2,1.75,2.27,2.47,3.21
					C471.28,657.6,471.64,657.98,471.59,658.04z"/>
			</g>
		</g>
		<g>
			<g>
				<path class="st4" d="M438.84,646.2c-0.04-0.04,0.27-0.46,1.07-0.97c0.79-0.49,2.12-1.01,3.83-0.98
					c0.86,0.02,1.76,0.13,2.74,0.53c0.97,0.44,1.77,1.23,2.44,2.11c0.68,0.88,1.27,1.86,1.91,2.81c0.63,0.92,1.43,1.89,2.16,2.88
					c6.01,7.9,10.48,14.66,10.07,14.9c-0.07,0.03-0.34-0.38-0.88-1.11c-0.68-0.91-1.45-1.93-2.31-3.08
					c-2.15-2.85-4.77-6.31-7.66-10.13c-0.74-1.01-1.48-1.92-2.17-2.93c-0.66-0.99-1.22-1.96-1.84-2.8c-0.61-0.84-1.3-1.53-2.07-1.92
					c-0.77-0.36-1.67-0.52-2.43-0.57C440.5,644.75,438.9,646.38,438.84,646.2z"/>
			</g>
		</g>
		<g>
			<g>
				<path class="st4" d="M476.39,643.71c-0.09,0.1-1.52-1.04-3.75-2.96c-2.23-1.92-5.27-4.62-8.58-7.66
					c-1.63-1.51-3.19-2.95-4.65-4.3c-1.4-1.39-2.67-2.47-3.98-3.06c-2.63-1.22-4.51-0.51-4.51-0.66c-0.03-0.06,0.39-0.32,1.23-0.45
					c0.84-0.13,2.12-0.09,3.55,0.47c0.71,0.28,1.44,0.7,2.18,1.21c0.73,0.54,1.41,1.16,2.13,1.81c1.48,1.33,3.05,2.76,4.7,4.25
					c3.32,3.03,6.28,5.82,8.39,7.87C475.22,642.3,476.48,643.62,476.39,643.71z"/>
			</g>
		</g>
	</g>
	<g class="st1">
		<g>
			<path class="st6" d="M270.1,649.41c0,0-17.25-19.37-16.16-45.22c1.09-25.85,8.5-100.65,11.8-121.18
				c3.26-20.3,18.74-48.52,43.33-54.63c17.99-4.47,21.7,49.94,21.7,49.94L317.18,598.4l27.07,15.72l-25.26,42.8L270.1,649.41z"/>
		</g>
		<g>
			<g>
				<path class="st2" d="M328.43,472.33c-0.19,0.02-0.41-2.63-1.55-6.72c-0.55-2.05-1.42-4.42-2.57-6.97
					c-1.2-2.53-2.71-5.21-4.59-7.84c-1.91-2.61-3.99-4.88-6.01-6.81c-2.06-1.89-4.05-3.46-5.82-4.62c-3.53-2.36-5.97-3.4-5.9-3.57
					c0.03-0.06,0.65,0.16,1.76,0.63c0.56,0.22,1.23,0.52,1.98,0.93c0.75,0.41,1.63,0.83,2.53,1.43c1.85,1.11,3.92,2.65,6.05,4.54
					c2.1,1.93,4.25,4.24,6.2,6.9c1.92,2.68,3.44,5.44,4.62,8.04c1.13,2.62,1.95,5.07,2.42,7.17c0.29,1.04,0.42,2.01,0.57,2.85
					c0.16,0.84,0.23,1.57,0.27,2.17C328.48,471.66,328.5,472.32,328.43,472.33z"/>
			</g>
		</g>
		<g>
			<g>
				<path class="st2" d="M317.12,598.49c0.06,0.14-1.62,1-4.27,2.5c-2.65,1.5-6.24,3.69-9.97,6.45c-3.72,2.77-6.86,5.58-9.08,7.67
					c-2.22,2.09-3.56,3.43-3.67,3.33c-0.09-0.08,1.07-1.59,3.18-3.82c2.11-2.23,5.21-5.15,8.98-7.96c3.77-2.8,7.47-4.93,10.22-6.28
					C315.28,599.02,317.07,598.38,317.12,598.49z"/>
			</g>
		</g>
	</g>
	<g class="st1">
		<g>
			<path class="st7" d="M496.38,571.11l-29.7,107.86h138.68l33.79-102.75c1.32-4.01-1.64-8.15-5.86-8.2l-130.81-1.49
				C499.64,566.49,497.14,568.38,496.38,571.11z"/>
		</g>
		<g>
			<g>
				<path class="st2" d="M505.37,566.56c0.26,0.07-6.47,25.3-15.03,56.33c-8.56,31.05-15.71,56.15-15.97,56.08
					c-0.26-0.07,6.47-25.29,15.03-56.34C497.96,591.59,505.11,566.49,505.37,566.56z"/>
			</g>
		</g>
		<g>
			<path class="st9" d="M558.97,621.07c-1.6,3.31-0.55,7.12,2.33,8.51c2.88,1.39,6.52-0.16,8.11-3.46c1.6-3.31,0.55-7.12-2.33-8.51
				C564.2,616.22,560.56,617.77,558.97,621.07z"/>
		</g>
		<g>
			<path class="st7" d="M466.68,678.97h-92.8l0,0c0-4.39,3.55-7.94,7.94-7.94h88.3L466.68,678.97z"/>
		</g>
	</g>
	<g class="st1">
		<g>
			<path class="st2" d="M253.94,604.19c0.02,0,0.04,0.3,0.06,0.87c0.01,0.63,0.03,1.47,0.05,2.55c-0.03,1.12,0.13,2.5,0.28,4.13
				c0.09,1.63,0.46,3.48,0.8,5.57c0.84,4.15,2.23,9.15,4.66,14.63c2.41,5.46,5.81,11.47,10.58,17.21l-0.22-0.12
				c13.93,2.12,30.6,4.65,48.9,7.42l-0.47,0.22c6.15-10.43,12.8-21.7,19.68-33.38c1.88-3.18,3.73-6.32,5.57-9.43l0.17,0.67
				c-9.44-5.49-18.53-10.78-27.06-15.74l-0.25-0.15l0.03-0.29c2.48-27.49,4.62-51.13,6.14-67.95c0.79-8.34,1.42-14.99,1.86-19.62
				c0.23-2.24,0.41-3.99,0.53-5.23c0.07-0.56,0.12-1,0.16-1.35c0.04-0.3,0.07-0.46,0.08-0.45c0.01,0,0.01,0.16,0,0.46
				c-0.02,0.35-0.05,0.79-0.08,1.35c-0.09,1.25-0.22,3-0.38,5.24c-0.37,4.63-0.91,11.29-1.59,19.64
				c-1.43,16.83-3.45,40.48-5.79,67.98l-0.23-0.44c8.53,4.95,17.63,10.22,27.08,15.7l0.42,0.24l-0.25,0.42
				c-1.84,3.11-3.69,6.26-5.57,9.44c-6.89,11.67-13.55,22.94-19.71,33.36l-0.16,0.27l-0.31-0.05c-18.28-2.85-34.94-5.44-48.87-7.61
				l-0.14-0.02l-0.08-0.1c-9.59-11.86-13.57-23.95-15.1-32.26c-0.31-2.11-0.65-3.97-0.71-5.62c-0.12-1.64-0.24-3.02-0.18-4.15
				c0.02-1.08,0.04-1.93,0.05-2.56C253.9,604.49,253.92,604.19,253.94,604.19z"/>
		</g>
	</g>
	<g class="st1">
		<g>
			<g>
				<path class="st5" d="M184.47,637.9c0,0,164.01,20.76,169.86,26.51c5.14,5.05,11.7,138.26,13.16,137.61l-153.06-5.8L184.47,637.9
					z"/>
			</g>
			<g>
				<g>
					<path class="st2" d="M319.77,832.94c-0.27,0.02-3.68-38.4-7.63-85.81c-3.95-47.42-6.93-85.87-6.66-85.89
						c0.27-0.02,3.68,38.39,7.63,85.81C317.06,794.46,320.04,832.92,319.77,832.94z"/>
				</g>
			</g>
			<g>
				<g>
					<path class="st2" d="M152.22,465.79c0.02,0,0.08,0.21,0.19,0.64c0.12,0.47,0.27,1.1,0.46,1.89c0.39,1.72,0.95,4.17,1.67,7.29
						c1.42,6.4,3.45,15.56,5.96,26.85c4.95,22.74,11.78,54.07,19.31,88.67c1.87,8.66,3.69,17.12,5.46,25.29
						c0.88,4.08,1.74,8.1,2.59,12.03c0.21,0.98,0.42,1.96,0.63,2.93c0.22,0.99,0.37,1.93,0.74,2.78c0.71,1.73,2,3.18,3.57,4.1
						c0.79,0.46,1.64,0.8,2.52,1.01c0.86,0.19,1.83,0.28,2.75,0.41c1.85,0.24,3.68,0.48,5.49,0.72c3.61,0.47,7.11,0.93,10.49,1.38
						c6.76,0.89,13.07,1.73,18.83,2.49c11.47,1.54,20.76,2.8,27.26,3.67c3.17,0.45,5.65,0.8,7.4,1.05c0.8,0.12,1.44,0.22,1.92,0.3
						c0.43,0.07,0.65,0.12,0.65,0.13c0,0.02-0.23,0-0.66-0.04c-0.49-0.05-1.13-0.12-1.93-0.2c-1.76-0.21-4.25-0.5-7.43-0.87
						c-6.5-0.8-15.82-1.95-27.3-3.37c-5.77-0.73-12.08-1.52-18.85-2.37c-3.39-0.43-6.89-0.87-10.5-1.33
						c-1.8-0.23-3.63-0.46-5.49-0.7c-0.93-0.13-1.84-0.2-2.84-0.41c-0.97-0.22-1.91-0.59-2.78-1.1c-1.74-1.01-3.17-2.61-3.96-4.53
						c-0.41-0.97-0.58-1.99-0.79-2.94c-0.21-0.97-0.42-1.95-0.64-2.93c-0.85-3.93-1.72-7.94-2.61-12.02
						c-1.77-8.17-3.6-16.62-5.48-25.28c-7.43-34.62-14.15-65.97-19.03-88.73c-2.38-11.32-4.31-20.5-5.66-26.92
						c-0.64-3.14-1.14-5.6-1.49-7.33c-0.15-0.8-0.27-1.43-0.36-1.91C152.23,466.02,152.2,465.8,152.22,465.79z"/>
				</g>
			</g>
		</g>
		<g>
			<g>
				<path class="st2" d="M356.8,675c0.27-0.02,3.4,35.41,6.99,79.13c3.59,43.73,6.29,79.19,6.02,79.21
					c-0.27,0.02-3.4-35.4-6.99-79.14C359.22,710.49,356.53,675.02,356.8,675z"/>
			</g>
		</g>
	</g>
</g>
<g class="st0">
	<g class="st1">
		<g>
			<rect x="546.33" y="165.79" class="st9" width="380.32" height="333.04"/>
		</g>
		<g>
			<rect x="547.26" y="318.59" class="st10" width="379.39" height="180.23"/>
		</g>
		<g>
			<g>
				<path class="st2" d="M856.13,276.66c0,0.27-52.05,0.49-116.24,0.49c-64.21,0-116.25-0.22-116.25-0.49s52.04-0.49,116.25-0.49
					C804.08,276.17,856.13,276.39,856.13,276.66z"/>
			</g>
		</g>
		<g>
			<g>
				<path class="st2" d="M924.46,201.82c0,0.27-84.24,0.49-188.13,0.49c-103.93,0-188.15-0.22-188.15-0.49
					c0-0.27,84.22-0.49,188.15-0.49C840.22,201.33,924.46,201.55,924.46,201.82z"/>
			</g>
		</g>
		<g>
			<circle class="st2" cx="566.92" cy="183.12" r="5.77"/>
		</g>
		<g>
			<circle class="st2" cx="586.23" cy="183.12" r="5.77"/>
		</g>
		<g>
			<path class="st2" d="M611.3,183.12c0,3.19-2.58,5.77-5.77,5.77c-3.19,0-5.77-2.58-5.77-5.77c0-3.19,2.58-5.77,5.77-5.77
				C608.72,177.35,611.3,179.94,611.3,183.12z"/>
		</g>
		<g>
			
				<ellipse transform="matrix(0.7071 -0.7071 0.7071 0.7071 -16.87 510.5363)" class="st6" cx="607.84" cy="275.63" rx="15.18" ry="15.18"/>
		</g>
		<g>
			<path class="st9" d="M610.4,268.02v14.7H607v-11.97h-2.94v-2.73H610.4z"/>
		</g>
		<g>
			<g>
				<path class="st6" d="M760.72,276.14c-0.14,0.01-0.01-1.97-0.87-5.35c-0.86-3.31-3.08-8.18-8.06-11.94
					c-2.47-1.84-5.58-3.4-9.16-4.02c-3.56-0.6-7.57-0.48-11.38,0.98c-1.92,0.67-3.77,1.68-5.47,2.96c-1.72,1.25-3.28,2.8-4.57,4.6
					c-2.66,3.54-4.16,8.09-4.2,12.78c0.04,4.69,1.54,9.24,4.2,12.78c1.29,1.8,2.85,3.35,4.57,4.6c1.7,1.28,3.55,2.29,5.47,2.96
					c3.81,1.46,7.82,1.58,11.38,0.98c3.58-0.62,6.69-2.18,9.16-4.02c4.98-3.76,7.2-8.63,8.06-11.94
					C760.72,278.11,760.59,276.13,760.72,276.14c0.03,0,0.04,0.48,0.03,1.41c0,0.47-0.02,1.04-0.13,1.71
					c-0.09,0.67-0.17,1.46-0.41,2.31c-0.76,3.4-2.92,8.44-8.01,12.4c-2.52,1.93-5.72,3.58-9.43,4.26
					c-3.68,0.66-7.85,0.57-11.83-0.93c-2-0.69-3.94-1.73-5.72-3.05c-1.8-1.3-3.43-2.91-4.78-4.78c-2.79-3.69-4.36-8.45-4.4-13.35
					c0.04-4.9,1.62-9.65,4.4-13.34c1.35-1.87,2.98-3.48,4.78-4.78c1.78-1.32,3.71-2.36,5.72-3.05c3.98-1.49,8.15-1.59,11.83-0.93
					c3.71,0.68,6.91,2.33,9.43,4.26c5.09,3.95,7.25,9,8.01,12.4c0.24,0.85,0.32,1.64,0.41,2.31c0.11,0.67,0.13,1.25,0.13,1.71
					C760.76,275.66,760.76,276.14,760.72,276.14z"/>
			</g>
		</g>
		<g>
			<g>
				<path class="st2" d="M886.46,275.63c-0.11,0.01-0.05-1.35-0.66-3.66c-0.6-2.26-2.14-5.58-5.55-8.13
					c-1.69-1.25-3.81-2.3-6.25-2.72c-2.42-0.4-5.15-0.32-7.75,0.68c-2.59,0.94-5.07,2.7-6.82,5.15c-1.81,2.41-2.82,5.5-2.85,8.69
					c0.03,3.19,1.05,6.28,2.85,8.69c1.76,2.44,4.23,4.21,6.82,5.15c2.59,1,5.32,1.08,7.75,0.68c2.44-0.42,4.56-1.47,6.25-2.72
					c3.41-2.55,4.94-5.87,5.55-8.13C886.41,276.99,886.35,275.62,886.46,275.63c0.03,0,0.05,0.33,0.05,0.97
					c0.01,0.64-0.07,1.59-0.34,2.78c-0.51,2.35-1.98,5.84-5.5,8.59c-1.74,1.34-3.95,2.49-6.52,2.97c-2.55,0.46-5.44,0.4-8.2-0.63
					c-2.76-0.97-5.4-2.83-7.29-5.43c-1.93-2.56-3.03-5.86-3.06-9.26c0.03-3.4,1.13-6.7,3.06-9.25c1.88-2.59,4.52-4.45,7.29-5.42
					c2.76-1.03,5.65-1.09,8.2-0.63c2.57,0.48,4.78,1.63,6.52,2.97c3.51,2.75,4.99,6.24,5.5,8.59c0.27,1.19,0.35,2.14,0.34,2.78
					C886.51,275.3,886.49,275.63,886.46,275.63z"/>
			</g>
		</g>
		<g>
			<rect x="620.94" y="274.99" class="st6" width="147.47" height="2.67"/>
		</g>
		<g>
			<g>
				
					<ellipse transform="matrix(0.1606 -0.987 0.987 0.1606 347.9545 960.4066)" class="st6" cx="738.62" cy="275.63" rx="15.18" ry="15.18"/>
			</g>
			<g>
				<path class="st9" d="M744.35,279.95v2.77h-11.11v-2.2l5.67-5.35c1.3-1.24,1.53-1.99,1.53-2.71c0-1.16-0.8-1.83-2.35-1.83
					c-1.26,0-2.33,0.48-3.05,1.47l-2.48-1.6c1.13-1.66,3.19-2.73,5.84-2.73c3.28,0,5.46,1.68,5.46,4.35c0,1.43-0.4,2.73-2.46,4.64
					l-3.38,3.19H744.35z"/>
			</g>
		</g>
		<g>
			<path class="st2" d="M877.04,278.22c0,2.48-1.91,4.75-6.09,4.75c-2.06,0-4.18-0.57-5.61-1.57l1.32-2.6
				c1.11,0.84,2.67,1.32,4.2,1.32c1.7,0,2.75-0.69,2.75-1.89c0-1.11-0.82-1.81-2.75-1.81h-1.55v-2.25l3.02-3.42h-6.26v-2.73h10.29
				v2.2l-3.32,3.78C875.7,274.42,877.04,276.06,877.04,278.22z"/>
		</g>
		<g>
			<g>
				<path class="st2" d="M830.42,227.85c0,0.27-36.93,0.49-82.48,0.49c-45.56,0-82.49-0.22-82.49-0.49c0-0.27,36.92-0.49,82.49-0.49
					C793.49,227.36,830.42,227.58,830.42,227.85z"/>
			</g>
		</g>
		<g>
			<polygon class="st10" points="728.49,320.76 739.89,305.29 751.29,320.76 			"/>
		</g>
		<g>
			<g>
				<path class="st2" d="M926.65,498.83c0-3.46-0.16-132.65-0.41-333.04l0.41,0.41c-109.34,0.02-240.09,0.05-380.28,0.08h-0.03
					l0.49-0.49c-0.02,121-0.04,234.96-0.06,333.04l-0.43-0.43C773.2,498.65,922.93,498.82,926.65,498.83
					c-3.72,0-153.45,0.17-380.32,0.43l-0.43,0l0-0.43c-0.02-98.08-0.04-212.03-0.06-333.04v-0.49h0.49h0.03
					c140.19,0.03,270.94,0.05,380.28,0.08l0.41,0l0,0.41C926.81,366.17,926.65,495.37,926.65,498.83z"/>
			</g>
		</g>
		<g>
			<g>
				<path class="st6" d="M641.12,357.51c0,0.27-11.6,0.49-25.92,0.49c-14.32,0-25.92-0.22-25.92-0.49c0-0.27,11.6-0.49,25.92-0.49
					C629.51,357.03,641.12,357.24,641.12,357.51z"/>
			</g>
		</g>
		<g>
			<path class="st11" d="M694.34,399.35h-97.96c-7.34,0-13.28-5.95-13.28-13.28l0,0c0-7.34,5.95-13.28,13.28-13.28h97.96
				c7.34,0,13.28,5.95,13.28,13.28l0,0C707.62,393.41,701.68,399.35,694.34,399.35z"/>
		</g>
		<g>
			<g>
				<path class="st6" d="M822.4,357.51c0,0.27-11,0.49-24.56,0.49c-13.57,0-24.56-0.22-24.56-0.49c0-0.27,10.99-0.49,24.56-0.49
					C811.4,357.03,822.4,357.24,822.4,357.51z"/>
			</g>
		</g>
		<g>
			<g>
				<path class="st6" d="M639.76,429.91c0,0.27-11,0.49-24.56,0.49c-13.57,0-24.56-0.22-24.56-0.49c0-0.27,10.99-0.49,24.56-0.49
					C628.76,429.42,639.76,429.64,639.76,429.91z"/>
			</g>
		</g>
		<g>
			<path class="st11" d="M872.24,399.35h-97.96c-7.34,0-13.28-5.95-13.28-13.28l0,0c0-7.34,5.95-13.28,13.28-13.28h97.96
				c7.34,0,13.28,5.95,13.28,13.28l0,0C885.53,393.41,879.58,399.35,872.24,399.35z"/>
		</g>
		<g>
			<path class="st11" d="M875.88,472.85H597.1c-7.34,0-13.28-5.95-13.28-13.28l0,0c0-7.34,5.95-13.28,13.28-13.28h278.78
				c7.34,0,13.28,5.95,13.28,13.28l0,0C889.16,466.91,883.21,472.85,875.88,472.85z"/>
		</g>
	</g>
	<g class="st1">
		<g>
			<g>
				
					<ellipse transform="matrix(0.7071 -0.7071 0.7071 0.7071 150.8388 703.3687)" class="st6" cx="924.46" cy="169.61" rx="27.61" ry="27.61"/>
			</g>
		</g>
		<g>
			<g>
				<g>
					<g>
						
							<rect x="922.37" y="156.32" transform="matrix(0.7071 0.7071 -0.7071 0.7071 390.2304 -604.7285)" class="st9" width="5.53" height="24.79"/>
					</g>
				</g>
			</g>
			<g>
				<g>
					<g>
						
							<rect x="922.37" y="156.32" transform="matrix(0.7071 -0.7071 0.7071 0.7071 151.6521 703.5679)" class="st9" width="5.53" height="24.79"/>
					</g>
				</g>
			</g>
		</g>
	</g>
</g>
<g>
	<g>
		<path class="st2" d="M1001.8,986.3c0,0.29-208.47,0.53-465.57,0.53c-257.19,0-465.61-0.24-465.61-0.53
			c0-0.29,208.42-0.53,465.61-0.53C793.33,985.77,1001.8,986.01,1001.8,986.3z"/>
	</g>
</g>
<g>
	<g>
		
			<rect x="612.39" y="903.94" transform="matrix(-1 -1.224647e-16 1.224647e-16 -1 1274.8059 1889.7523)" class="st6" width="50.02" height="81.87"/>
	</g>
	<g>
		
			<rect x="814.11" y="846.92" transform="matrix(-1 -1.224647e-16 1.224647e-16 -1 1678.2506 1832.7307)" class="st6" width="50.02" height="138.89"/>
	</g>
	<g>
		
			<rect x="914.98" y="935.35" transform="matrix(-1 -1.224647e-16 1.224647e-16 -1 1879.9729 1921.1619)" class="st6" width="50.02" height="50.46"/>
	</g>
	<g>
		
			<rect x="713.25" y="865.04" transform="matrix(-1 -1.224647e-16 1.224647e-16 -1 1476.5283 1850.8486)" class="st6" width="50.02" height="120.77"/>
	</g>
	<g>
		
			<rect x="511.53" y="835.34" transform="matrix(-1 -1.224647e-16 1.224647e-16 -1 1073.083 1821.1492)" class="st6" width="50.02" height="150.47"/>
	</g>
	<g>
		
			<rect x="410.67" y="792.25" transform="matrix(-1 -1.224647e-16 1.224647e-16 -1 871.3607 1778.0604)" class="st6" width="50.02" height="193.56"/>
	</g>
	<g>
		
			<rect x="309.81" y="744.26" transform="matrix(-1 -1.224647e-16 1.224647e-16 -1 669.6375 1730.0752)" class="st6" width="50.02" height="241.55"/>
	</g>
	<g>
		
			<rect x="208.95" y="679.18" transform="matrix(-1 -1.224647e-16 1.224647e-16 -1 467.9152 1664.9938)" class="st6" width="50.02" height="306.63"/>
	</g>
	<g>
		
			<rect x="108.09" y="582.75" transform="matrix(-1 -1.224647e-16 1.224647e-16 -1 266.1931 1568.5599)" class="st6" width="50.02" height="403.06"/>
	</g>
</g>
<g>
	<g>
		<path class="st10" d="M877.55,931.56c-15.92-31.12-49.65-52.31-84.6-53.14c21.21-23.46,25.38-59.76,13.15-88.92
			c-12.23-29.17-39.15-50.91-69.35-60.29c-30.2-9.38-63.26-7.18-93.36,2.53c3.49-22.81-19.32-45.56-42.11-42.02
			c8.91-6.17,11.96-19.44,6.61-28.87c-5.34-9.43-18.29-13.65-28.16-9.18l1.33-167.15h-32.94h-33.49h-32.94l1.33,167.15
			c-9.87-4.47-22.82-0.25-28.16,9.18c-5.34,9.43-2.3,22.71,6.61,28.87c-22.8-3.54-45.61,19.22-42.11,42.02
			c-30.1-9.7-63.16-11.91-93.36-2.53s-57.12,31.12-69.35,60.29c-12.23,29.17-8.05,65.46,13.15,88.92
			c-34.95,0.83-68.68,22.02-84.6,53.14c-9.25,18.08-10.1,44.79,7.87,54.25h321.56h33.49h321.56
			C887.65,976.35,886.8,949.64,877.55,931.56z"/>
	</g>
	<g>
		<g>
			<path class="st2" d="M193.06,985.81c0,0-0.82-0.48-2.41-1.45c-1.57-1-3.74-2.81-6.01-5.7c-2.2-2.94-4.2-7.17-5.25-12.48
				c-1.09-5.31-1.06-11.68,0.21-18.64c1.23-6.97,4.1-14.48,8.64-21.87c4.48-7.42,10.47-14.87,18.07-21.69
				c7.6-6.77,16.72-13.12,27.47-17.71c1.34-0.57,2.7-1.14,4.06-1.72c1.4-0.49,2.81-0.98,4.23-1.47c1.41-0.53,2.86-0.95,4.34-1.34
				c1.48-0.39,2.94-0.85,4.45-1.19c6.04-1.39,12.37-2.2,18.91-2.46l-0.23,0.53c-6.18-6.9-11.24-15.29-14.76-24.64
				c-3.45-9.38-5.29-19.72-5.31-30.41c0.08-10.68,1.89-21.74,6.07-32.32c2.07-5.28,4.62-10.48,7.76-15.4
				c3.08-4.96,6.63-9.72,10.67-14.14c16.02-17.8,38.89-31.13,64.71-36.18c12.87-2.64,26.38-3.3,40-2.35
				c13.62,1.06,27.34,3.79,40.81,8.1l-0.61,0.52c-0.81-5.39-0.18-11.06,1.74-16.33c1.9-5.29,5.03-10.2,9.02-14.35
				c4-4.15,8.89-7.56,14.37-9.75c5.47-2.19,11.57-3.08,17.53-2.16l-0.36,0.89c-8.61-5.96-12.2-18.82-7.12-28.83
				c5.12-9.96,18.56-14.81,29.16-10.09l-0.72,0.47c-0.43-53.24-0.89-109.36-1.35-167.15l0-0.53h0.53c15.76,0,32.64,0,49.65,0
				c16.71,0,33.29,0,49.72,0h0.53l0,0.53c-0.47,57.66-0.92,113.61-1.35,167.15l-0.72-0.47c10.41-4.64,23.62-0.09,28.96,9.69
				c5.28,9.83,2.03,23-6.92,29.23l-0.36-0.89c5.88-0.92,11.91-0.06,17.33,2.07c5.44,2.13,10.31,5.47,14.33,9.56
				c4.01,4.1,7.2,8.98,9.17,14.3c1.98,5.31,2.68,11.09,1.83,16.65l-0.61-0.52c13.47-4.31,27.19-7.04,40.79-8.09
				c13.6-0.95,27.1-0.3,39.96,2.33c25.79,5.03,48.64,18.33,64.67,36.08c4.05,4.41,7.59,9.17,10.68,14.12
				c3.15,4.91,5.69,10.11,7.78,15.38c2.18,5.25,3.51,10.72,4.61,16.12c0.98,5.43,1.47,10.86,1.51,16.21
				c0.01,10.7-1.84,21.06-5.27,30.46c-3.51,9.38-8.58,17.8-14.79,24.74l-0.23-0.53c6.55,0.26,12.89,1.07,18.94,2.46
				c1.51,0.34,2.98,0.8,4.46,1.19c1.48,0.39,2.93,0.81,4.35,1.34c1.42,0.5,2.83,0.99,4.23,1.48c1.37,0.58,2.72,1.15,4.07,1.72
				c10.76,4.59,19.88,10.96,27.48,17.73c7.59,6.83,13.58,14.28,18.06,21.71c4.53,7.39,7.39,14.9,8.61,21.87
				c1.27,6.95,1.28,13.32,0.19,18.62c-1.05,5.31-3.06,9.52-5.25,12.46c-2.27,2.89-4.44,4.69-6,5.69c-1.59,0.98-2.41,1.45-2.41,1.45
				s0.79-0.53,2.36-1.52c1.54-1.02,3.68-2.84,5.91-5.72c2.16-2.94,4.12-7.13,5.14-12.4c1.06-5.27,1.02-11.6-0.27-18.5
				c-1.24-6.93-4.1-14.36-8.64-21.71c-4.48-7.38-10.46-14.78-18.03-21.56c-7.58-6.72-16.67-13.04-27.38-17.58
				c-1.34-0.56-2.69-1.13-4.05-1.7c-1.39-0.48-2.8-0.97-4.21-1.46c-1.4-0.53-2.85-0.94-4.32-1.32c-1.47-0.38-2.93-0.84-4.43-1.18
				c-6.01-1.37-12.31-2.16-18.82-2.41l-0.68-0.03l0.45-0.51c6.14-6.88,11.15-15.24,14.62-24.55c3.38-9.33,5.21-19.61,5.18-30.23
				c-0.05-5.31-0.54-10.69-1.52-16.07c-1.1-5.35-2.43-10.77-4.59-15.97c-2.08-5.22-4.61-10.37-7.74-15.24
				c-3.07-4.9-6.59-9.62-10.61-13.99c-15.93-17.61-38.62-30.79-64.24-35.76c-12.78-2.61-26.19-3.24-39.72-2.29
				c-13.53,1.06-27.17,3.79-40.57,8.08l-0.73,0.23l0.11-0.76c0.82-5.39,0.13-11-1.8-16.17c-1.92-5.18-5.03-9.95-8.96-13.96
				c-3.93-4-8.69-7.26-13.99-9.33c-5.28-2.07-11.13-2.9-16.82-2.01l-2.13,0.33l1.77-1.23c8.51-5.89,11.64-18.62,6.6-27.93
				c-5.04-9.29-17.8-13.68-27.66-9.25l-0.72,0.33l0.01-0.79c0.42-53.54,0.86-109.5,1.32-167.15l0.53,0.53c-16.43,0-33.02,0-49.72,0
				c-17.01,0-33.89,0-49.65,0l0.53-0.53c0.45,57.8,0.9,113.92,1.32,167.15l0.01,0.79l-0.72-0.33c-10.04-4.52-23.02,0.16-27.85,9.62
				c-4.86,9.5-1.4,21.92,6.79,27.56l1.78,1.23l-2.14-0.33c-5.76-0.9-11.69-0.04-17.01,2.09c-5.34,2.12-10.13,5.46-14.04,9.51
				c-7.84,8.05-12.15,19.35-10.52,29.87l0.12,0.76l-0.73-0.23c-13.4-4.29-27.05-7.02-40.59-8.08c-13.54-0.96-26.96-0.31-39.75,2.3
				c-25.64,4.99-48.36,18.21-64.28,35.85c-4.02,4.38-7.54,9.11-10.6,14.02c-3.12,4.88-5.65,10.03-7.71,15.26
				c-4.16,10.48-5.97,21.45-6.06,32.04c0.01,10.6,1.82,20.87,5.22,30.17c3.47,9.28,8.47,17.6,14.59,24.45l0.45,0.51l-0.68,0.03
				c-6.49,0.25-12.79,1.04-18.79,2.41c-1.5,0.33-2.96,0.79-4.43,1.17c-1.47,0.38-2.92,0.79-4.32,1.32
				c-1.41,0.49-2.81,0.98-4.21,1.46c-1.36,0.57-2.71,1.14-4.04,1.7c-10.7,4.53-19.79,10.83-27.37,17.55
				c-7.57,6.77-13.55,14.17-18.04,21.54c-4.54,7.35-7.41,14.78-8.66,21.71c-1.29,6.91-1.35,13.25-0.29,18.52
				c1.01,5.28,2.97,9.48,5.13,12.43c2.23,2.89,4.37,4.71,5.92,5.74C192.26,985.28,193.06,985.81,193.06,985.81z"/>
		</g>
	</g>
	<g>
		<g>
			<polygon class="st6" points="402.45,255.35 527.6,109.67 647.86,255.35 600.93,255.35 600.93,492.94 455.25,492.94 455.25,255.6 
							"/>
		</g>
	</g>
	<g>
		<g>
			<g>
				<polygon class="st6" points="996.83,492.07 908.24,519.3 929.75,532.87 989.35,569.96 1008.53,581.94 				"/>
			</g>
			<g>
				<g>
					<polygon class="st6" points="597.01,953.15 543.62,926.47 670.26,730.73 721.68,780.02 822.28,620.24 872.49,657.07 
						962.71,509.9 993.04,524.09 882.1,722.95 825.9,670.48 729.95,849.48 679.45,790.41 					"/>
				</g>
			</g>
		</g>
		<g class="st8">
			<g>
				<path d="M649.27,902.7c-12.14-8.05-27.87-8.93-42.16-6.11c-4.73,0.93-9.96,2.16-14.09-0.32c-4.1-2.45-5.5-7.58-7.14-12.08
					c-8.36-22.96-31.27-38.69-55.37-42.7c-24.1-4.01-43.46-2.08-65.31,8.86c-13.04,6.53-26.51,15.66-37.95,32.7
					c-3.28,4.89-9.22,14.84-9.22,14.84c-4.36,3.22-10.15,3.44-15.5,4.31c-22.1,3.6-41.16,21.55-46.08,43.39l306.34-4.98
					C668.54,927.24,661.41,910.76,649.27,902.7z"/>
			</g>
		</g>
		<g>
			<g>
				<path class="st10" d="M339.66,965.6c9.57-33.91,47.33-57.19,81.93-50.51c7.3-36.9,42.68-66.21,80.3-66.51
					c37.62-0.29,73.46,28.46,81.33,65.24c20.79-4.79,43.15-8.35,62.99-0.53c19.85,7.82,35.05,31.08,26.84,50.77"/>
			</g>
			<g>
				<g>
					<path class="st2" d="M673.05,964.06c-0.01-0.01,0.04-0.2,0.16-0.58c0.13-0.41,0.31-0.97,0.53-1.69
						c0.25-0.74,0.57-1.65,0.73-2.79c0.19-1.13,0.54-2.42,0.55-3.93c0.52-5.9-0.89-15.13-7.38-24.29
						c-3.2-4.54-7.57-9.02-13.14-12.72c-5.52-3.8-12.46-6.24-20.01-7.69c-7.59-1.37-15.85-1.56-24.43-0.74
						c-8.6,0.78-17.52,2.53-26.73,4.65l-0.46,0.11l-0.11-0.47c-3.29-14.58-11.18-29.32-23.42-40.95
						c-12.14-11.62-28.36-20.45-46.35-23.03c-11.2-1.57-22.57-0.7-32.93,2.64c-10.39,3.24-19.86,8.44-27.94,14.83
						c-8.09,6.4-14.83,13.99-19.88,22.19c-5.06,8.19-8.47,16.94-10.2,25.57l-0.09,0.43l-0.43-0.08c-7.73-1.46-15.36-1.37-22.42-0.29
						c-3.56,0.43-6.92,1.42-10.19,2.28c-1.6,0.56-3.18,1.11-4.73,1.65c-1.57,0.5-3,1.29-4.47,1.9c-2.96,1.19-5.56,2.89-8.19,4.28
						c-1.24,0.83-2.45,1.64-3.64,2.44c-0.6,0.4-1.18,0.8-1.77,1.19c-0.56,0.42-1.09,0.87-1.64,1.3c-1.07,0.86-2.13,1.71-3.16,2.54
						c-1.02,0.84-1.91,1.79-2.83,2.64c-0.9,0.89-1.83,1.7-2.65,2.58c-0.79,0.91-1.57,1.79-2.32,2.65
						c-5.95,6.96-9.27,13.42-11.22,17.88c-0.98,2.24-1.48,4.06-1.95,5.23c-0.43,1.19-0.68,1.79-0.68,1.79s0.66-2.53,2.38-7.13
						c1.88-4.52,5.14-11.06,11.08-18.11c0.75-0.87,1.52-1.77,2.31-2.68c0.81-0.9,1.74-1.73,2.64-2.62c0.93-0.87,1.82-1.83,2.84-2.68
						c1.03-0.84,2.09-1.7,3.16-2.58c0.54-0.43,1.08-0.89,1.64-1.32c0.59-0.4,1.18-0.8,1.78-1.21c1.2-0.81,2.42-1.64,3.66-2.48
						c2.64-1.42,5.26-3.14,8.24-4.36c1.48-0.63,2.92-1.43,4.5-1.94c1.57-0.55,3.16-1.12,4.77-1.69c3.3-0.89,6.69-1.9,10.29-2.35
						c7.14-1.12,14.86-1.24,22.71,0.21l-0.52,0.35c1.73-8.75,5.16-17.61,10.26-25.9c5.09-8.3,11.89-15.99,20.06-22.48
						c8.17-6.48,17.74-11.75,28.27-15.04c10.49-3.39,22.03-4.28,33.39-2.69c18.24,2.61,34.65,11.57,46.91,23.33
						c12.38,11.79,20.34,26.72,23.64,41.5l-0.57-0.36c9.23-2.1,18.2-3.84,26.86-4.6c8.65-0.8,16.99-0.58,24.66,0.84
						c7.62,1.5,14.66,4.01,20.24,7.9c5.63,3.78,10.02,8.34,13.23,12.96c6.5,9.32,7.84,18.69,7.22,24.64
						c-0.04,1.52-0.41,2.82-0.63,3.95c-0.19,1.14-0.53,2.06-0.8,2.79c-0.26,0.71-0.46,1.26-0.61,1.67
						C673.14,963.88,673.06,964.07,673.05,964.06z"/>
				</g>
			</g>
		</g>
	</g>
</g>
<g>
	<g>
		<g>
			<g>
				<g>
					<g>
						<path class="st7" d="M482.31,443.58c1.3,81.45-63.6,148.79-144.68,150.1c-81.08,1.31-148.1-63.9-149.41-145.35
							c-1.3-81.46,63.6-148.79,144.68-150.1C413.98,296.92,481.01,362.13,482.31,443.58z M264.96,447.09
							c0.62,38.94,32.67,70.12,71.44,69.5c38.77-0.63,69.8-32.82,69.18-71.77c-0.62-38.95-32.67-70.12-71.44-69.5
							C295.37,375.95,264.33,408.14,264.96,447.09z"/>
					</g>
				</g>
			</g>
		</g>
		<g>
			<g>
				<g>
					<g>
						<path class="st5" d="M482.31,443.58c1.3,81.45-63.6,148.79-144.68,150.1l-1.23-77.09c38.77-0.63,69.8-32.82,69.18-71.77
							c-0.62-38.94-32.67-70.12-71.44-69.5l-1.23-77.09C413.98,296.92,481.01,362.13,482.31,443.58z"/>
						<path class="st5" d="M336.63,594.7l-1.26-79.12l1.01-0.02c38.21-0.62,68.8-32.35,68.18-70.74
							c-0.3-18.57-7.79-35.92-21.11-48.88c-13.31-12.95-30.79-19.9-49.3-19.62l-1.01,0.02l-1.26-79.12l1.01-0.02
							c39.51-0.64,76.9,14.25,105.34,41.93c28.44,27.67,44.46,64.76,45.09,104.42c1.31,82.01-64.04,149.81-145.68,151.13
							L336.63,594.7z M337.42,517.58l1.2,75.06c80.05-1.84,143.96-68.49,142.67-149.05c-0.63-39.12-16.42-75.7-44.48-103
							c-27.81-27.06-64.32-41.72-102.88-41.36l1.2,75.07c18.59-0.02,36.27,7.11,49.73,20.2c13.7,13.33,21.42,31.19,21.72,50.3
							C407.21,483.97,376.28,516.4,337.42,517.58z"/>
					</g>
				</g>
			</g>
		</g>
		<g>
			<g id="XMLID_00000094579858673664603630000015149019927310354620_">
				<g>
					<g>
						<path class="st6" d="M350.83,605.53c-94.86,1.53-170.53-72.09-172.05-167.38l89.78-1.45c0.73,45.56,35.4,74.25,80.75,73.52
							L350.83,605.53z"/>
					</g>
				</g>
			</g>
		</g>
	</g>
	<g>
		<g>
			<g>
				<path class="st2" d="M230.35,439.7c0.57,0.39-7.92,13.7-18.95,29.72c-11.04,16.02-20.45,28.69-21.02,28.3
					c-0.57-0.39,7.92-13.7,18.96-29.72C220.37,451.98,229.78,439.31,230.35,439.7z"/>
			</g>
		</g>
	</g>
	<g>
		<g>
			<g>
				<path class="st2" d="M269.38,447.22c0.57,0.39-11.98,19.6-28.03,42.9c-16.06,23.3-29.53,41.87-30.1,41.48
					c-0.57-0.39,11.98-19.6,28.04-42.9C255.33,465.39,268.81,446.82,269.38,447.22z"/>
			</g>
		</g>
	</g>
	<g>
		<g>
			<g>
				<path class="st2" d="M288.37,487.13c0.57,0.39-10.73,17.78-25.24,38.84c-14.51,21.06-26.73,37.81-27.3,37.42
					c-0.57-0.39,10.73-17.78,25.24-38.84C275.58,503.49,287.8,486.74,288.37,487.13z"/>
			</g>
		</g>
	</g>
	<g>
		<g>
			<g>
				<path class="st2" d="M321.42,509.21c0.57,0.39-10.73,17.78-25.24,38.84c-14.51,21.06-26.73,37.81-27.3,37.42
					c-0.57-0.39,10.73-17.78,25.24-38.84C308.63,525.57,320.85,508.82,321.42,509.21z"/>
			</g>
		</g>
	</g>
	<g>
		<g>
			<g>
				<path class="st2" d="M349.74,537.24c0.57,0.39-8.66,14.78-20.62,32.14c-11.96,17.36-22.12,31.11-22.69,30.72
					c-0.57-0.39,8.66-14.78,20.62-32.14C339.01,550.6,349.17,536.84,349.74,537.24z"/>
			</g>
		</g>
	</g>
</g>
<g>
	<g>
		<g>
			<g>
				<g>
					<path class="st3" d="M817.94,162.3c0,0,8.86-20.4,9.29-23.6c0.43-3.19-0.46-10.29-2.75-12.22c-2.29-1.94-5.26-2.34-7.3-0.99
						c0,0-0.32-4.46-4.86-5.31c-4.53-0.85-4.4,3.35-4.4,3.35s0.21-3.11-3.09-3.94c-1.61-0.41-3.45,0.52-3.45,0.52
						s-4.33-3.86-7.21-1.46c-2.88,2.4,0.44,39.56,0.44,39.56L817.94,162.3z"/>
				</g>
				<g>
					<g>
						<path class="st3" d="M794.03,153.94c0,0-7.91-13.62-7.87-17.33c0.04-3.71,4.49-12.13,6.95-13.19
							c2.47-1.06,12.24-3.26,12.24-3.26s3.99,3.75-1.91,7.46l-6.81,3.83c0,0,10.88,3.64,10.53,14.74"/>
					</g>
					<g>
						<g>
							<path class="st4" d="M807.16,146.2c-0.18,0.02,0.06-1.98-1.01-5.14c-0.58-1.55-1.58-3.34-3.19-5
								c-1.6-1.65-3.83-3.19-6.47-4.18l-0.9-0.34l0.82-0.47c2.15-1.23,4.46-2.56,6.91-3.96c1.13-0.72,2.2-1.7,2.65-2.93
								c0.46-1.21-0.03-2.67-0.98-3.63l0.47,0.13c-1.67,0.4-3.44,0.82-5.23,1.24c-1.39,0.35-2.77,0.7-4.11,1.07
								c-0.67,0.19-1.33,0.38-1.97,0.6c-0.32,0.11-0.64,0.22-0.91,0.35c-0.24,0.12-0.47,0.3-0.71,0.5
								c-1.82,1.79-3.09,4.16-4.15,6.34c-0.52,1.11-0.98,2.22-1.31,3.32c-0.31,1.09-0.6,2.21-0.42,3.18
								c0.43,2.07,1.29,3.99,2.03,5.69c1.54,3.42,2.95,6.13,3.9,8.01c0.96,1.88,1.49,2.92,1.42,2.95c-0.06,0.04-0.71-0.94-1.78-2.76
								c-1.07-1.82-2.58-4.48-4.22-7.9c-0.79-1.73-1.7-3.58-2.22-5.86c-0.23-1.24,0.09-2.43,0.4-3.59c0.33-1.17,0.8-2.31,1.32-3.47
								c1.09-2.28,2.29-4.65,4.34-6.7c0.27-0.25,0.57-0.48,0.95-0.68c0.35-0.17,0.68-0.28,1.01-0.39c0.67-0.23,1.34-0.42,2.02-0.62
								c1.36-0.38,2.74-0.74,4.14-1.09c1.8-0.43,3.57-0.84,5.25-1.24l0.28-0.07l0.2,0.2c1.22,1.22,1.83,3.09,1.23,4.73
								c-0.62,1.6-1.86,2.64-3.1,3.43c-2.47,1.38-4.82,2.68-6.99,3.9l-0.08-0.81c2.83,1.11,5.06,2.75,6.71,4.53
								c1.65,1.78,2.63,3.7,3.16,5.33c0.23,0.83,0.44,1.57,0.49,2.24c0.09,0.66,0.16,1.22,0.12,1.68
								C807.24,145.72,807.21,146.2,807.16,146.2z"/>
						</g>
					</g>
				</g>
				<g>
					<g>
						<path class="st3" d="M807.11,123.71c-1.1,3.95-1.5,8.09-1.17,12.18c0.11,1.39,0.35,2.87,1.31,3.87
							c0.92,0.96,2.36,1.29,3.66,1.05c1.3-0.24,2.46-1,3.39-1.94"/>
					</g>
					<g>
						<g>
							<path class="st4" d="M814.32,138.86c0.08,0.03-0.65,1.39-2.91,2.21c-1.11,0.36-2.71,0.39-4.09-0.61
								c-1.41-1.05-1.8-2.97-1.91-4.63c-0.56-6.89,1.47-12.25,1.7-12.12c0.32,0.07-1.2,5.39-0.65,12.04
								c0.1,1.63,0.45,3.16,1.45,3.95c1,0.79,2.32,0.89,3.29,0.66C813.23,139.83,814.2,138.7,814.32,138.86z"/>
						</g>
					</g>
				</g>
				<g>
					<g>
						<path class="st3" d="M798.41,131.05c-0.69,1.77-0.44,2.55-0.33,4.44c0.11,1.9,1.25,3.88,3.1,4.32
							c1.54,0.37,3.54-1.69,4.44-3.83"/>
					</g>
					<g>
						<g>
							<path class="st4" d="M805.62,135.98c0.12,0.04-0.05,1.01-0.95,2.29c-0.46,0.62-1.07,1.37-2.11,1.85
								c-0.49,0.25-1.28,0.32-1.86,0.09c-0.59-0.19-1.14-0.55-1.59-1.01c-0.9-0.92-1.33-2.08-1.47-3.13
								c-0.08-1.07-0.1-1.86-0.08-2.68c0.1-1.61,0.75-2.4,0.84-2.35c0.17,0.06-0.19,0.95-0.09,2.34c0.1,0.88,0.2,1.72,0.29,2.53
								c0.16,0.87,0.56,1.83,1.26,2.54c0.35,0.35,0.75,0.62,1.17,0.77c0.43,0.16,0.74,0.13,1.15-0.01c0.78-0.31,1.42-0.91,1.9-1.42
								C805.06,136.75,805.47,135.92,805.62,135.98z"/>
						</g>
					</g>
				</g>
				<g>
					<g>
						<path class="st3" d="M817.91,125.72c-2.22,2.41-3.85,5.35-4.72,8.51c-0.46,1.66-0.6,3.68,0.67,4.84
							c1.33,1.21,3.49,0.76,5.02-0.19c2.32-1.45,3.99-3.89,4.49-6.58"/>
					</g>
					<g>
						<g>
							<path class="st4" d="M823.37,132.3c0.1-0.01,0.13,1.74-1.31,4.03c-0.73,1.12-1.82,2.34-3.42,3.23
								c-0.81,0.43-1.74,0.75-2.8,0.75c-1.04,0.02-2.25-0.48-2.88-1.49c-0.64-1-0.69-2.14-0.59-3.11c0.1-0.99,0.39-1.88,0.67-2.7
								c0.58-1.65,1.32-3.05,2.04-4.15c1.45-2.2,2.74-3.23,2.82-3.15c0.13,0.11-0.95,1.31-2.18,3.53c-0.61,1.11-1.25,2.48-1.76,4.07
								c-0.25,0.8-0.49,1.64-0.56,2.5c-0.08,0.86,0,1.76,0.44,2.43c0.91,1.43,3,1.16,4.35,0.45c1.42-0.74,2.51-1.81,3.25-2.79
								C822.94,133.89,823.19,132.25,823.37,132.3z"/>
						</g>
					</g>
				</g>
			</g>
			<g>
				<g>
					<path class="st2" d="M707.84,292.96c0,0,10.99-11.86,15.32-14.52c4.33-2.66,32.94-36.74,35.96-45.71
						c3.02-8.97,31.07-80.98,30.5-80.01c-0.48,0.81,35.61,7.62,35.61,7.62s-26.88,83.04-30.15,92.55
						c-5.92,17.21-35.27,52.08-51.99,72.99c-7.12,8.9-16.98,37.41-16.98,37.41L707.84,292.96z"/>
				</g>
				<g>
					<g>
						<path class="st5" d="M734.05,337.68c-0.14,0.02-0.59-2.46-1.04-6.51c-0.46-4.04-0.88-9.66-0.99-15.87
							c-0.1-6.21,0.13-11.84,0.45-15.9c0.32-4.06,0.68-6.55,0.82-6.54c0.15,0.01,0.05,2.52-0.07,6.58
							c-0.13,4.05-0.24,9.65-0.14,15.84c0.11,6.18,0.42,11.77,0.68,15.82C734.01,335.15,734.2,337.66,734.05,337.68z"/>
					</g>
				</g>
			</g>
		</g>
		<g>
			<g>
				<g>
					<g>
						<g>
							<g>
								<g>
									<g>
										<g>
											<g>
												<g>
													<g>
														<path class="st5" d="M552.83,760.94l-15.45,31.49l-1.97,7.71c0,0,10.31,46.8,3.87,51.41l-45.99-74.24l11.85-7.47
															l14.73-31.47L552.83,760.94z"/>
													</g>
												</g>
											</g>
										</g>
									</g>
								</g>
							</g>
						</g>
					</g>
				</g>
				<g>
					<g>
						<g>
							<g>
								<g>
									<g>
										<g>
											<g>
												<g>
													<g>
														<path class="st2" d="M493.29,777.32l5.82-3.34l41.92,72.43c0,0,0.69,4.15-1.75,5.15L493.29,777.32z"/>
													</g>
												</g>
											</g>
										</g>
									</g>
								</g>
							</g>
						</g>
					</g>
				</g>
				<g>
					<g>
						<g>
							<g>
								<g>
									<g>
										<g>
											<g>
												<g>
													<g>
														<g>
															<path class="st2" d="M536.51,801.12c-0.35,0.2-1.63-1.51-3.84-2.61c-2.18-1.15-4.24-1.15-4.31-1.57
																c-0.14-0.38,2.25-1.11,4.9,0.26C535.93,798.56,536.88,801.01,536.51,801.12z"/>
														</g>
													</g>
												</g>
											</g>
										</g>
									</g>
								</g>
							</g>
						</g>
					</g>
				</g>
				<g>
					<g>
						<g>
							<g>
								<g>
									<g>
										<g>
											<g>
												<g>
													<g>
														<g>
															<path class="st2" d="M538.29,810.81c-0.28,0.29-1.84-0.92-4.05-1.24c-2.21-0.39-3.97,0.27-4.18-0.1
																c-0.27-0.31,1.59-1.81,4.34-1.35C537.14,808.55,538.61,810.6,538.29,810.81z"/>
														</g>
													</g>
												</g>
											</g>
										</g>
									</g>
								</g>
							</g>
						</g>
					</g>
				</g>
				<g>
					<g>
						<g>
							<g>
								<g>
									<g>
										<g>
											<g>
												<g>
													<g>
														<g>
															<path class="st2" d="M532.2,820.72c-0.28-0.28,1.12-1.86,3.58-2.09c2.45-0.26,4.25,0.99,4.06,1.32
																c-0.16,0.38-1.85-0.09-3.86,0.14C533.97,820.27,532.46,821.06,532.2,820.72z"/>
														</g>
													</g>
												</g>
											</g>
										</g>
									</g>
								</g>
							</g>
						</g>
					</g>
				</g>
			</g>
			<g>
				<g>
					<g>
						<g>
							<path class="st2" d="M710.38,529.25c-1.52,3.59-79.1,122.36-95.02,135.56c-15.92,13.2-70.25,121.54-70.25,121.54
								s-44.39-21.53-45.38-19.19c-0.99,2.34,31.13-76.48,50.29-108.84c19.16-32.36,28.1-44.89,28.1-44.89l38.13-101.64
								c0,0,0.79-33.49,5.69-46.51c4.9-13.03,19.25-24.34,19.25-24.34L710.38,529.25z"/>
						</g>
					</g>
				</g>
			</g>
			<g>
				<g>
					<g>
						<g>
							<g>
								<g>
									<g>
										<g>
											<g>
												<g>
													<g>
														<path class="st5" d="M640.49,672.78l-41.25,2.96c0,0-10.6,45.22-18.17,46.55l-9.07-84.15l64.07-7.4L640.49,672.78z"/>
													</g>
												</g>
											</g>
										</g>
									</g>
								</g>
							</g>
						</g>
					</g>
				</g>
				<g>
					<g>
						<g>
							<g>
								<g>
									<g>
										<g>
											<g>
												<g>
													<g>
														<g>
															<path class="st7" d="M599.88,649.35c-0.6-1.58-2.45-2.52-3.97-1.97c-1.52,0.55-2.42,2.52-1.85,4.12
																c0.57,1.59,2.77,2.79,4.22,2.06c1.45-0.73,2.39-3.1,1.47-4.51"/>
														</g>
													</g>
												</g>
											</g>
										</g>
									</g>
								</g>
							</g>
						</g>
					</g>
				</g>
				<g>
					<g>
						<g>
							<g>
								<g>
									<g>
										<g>
											<g>
												<g>
													<g>
														<path class="st2" d="M571.99,638.14l6.49-0.48l6.27,80.86c0,0-1.14,3.92-3.69,3.77L571.99,638.14z"/>
													</g>
												</g>
											</g>
										</g>
									</g>
								</g>
							</g>
						</g>
					</g>
				</g>
				<g>
					<g>
						<g>
							<g>
								<g>
									<g>
										<g>
											<g>
												<g>
													<g>
														<g>
															<path class="st2" d="M599.79,677.06c-0.39,0.03-0.79-2.01-2.26-3.89c-1.42-1.92-3.22-2.78-3.11-3.18
																c0.03-0.39,2.43-0.03,4.17,2.28C600.35,674.58,600.15,677.11,599.79,677.06z"/>
														</g>
													</g>
												</g>
											</g>
										</g>
									</g>
								</g>
							</g>
						</g>
					</g>
				</g>
				<g>
					<g>
						<g>
							<g>
								<g>
									<g>
										<g>
											<g>
												<g>
													<g>
														<g>
															<path class="st2" d="M597.28,686.27c-0.37,0.14-1.22-1.57-3.02-2.79c-1.76-1.27-3.58-1.43-3.61-1.84
																c-0.1-0.38,2.15-0.91,4.36,0.64C597.23,683.82,597.65,686.22,597.28,686.27z"/>
														</g>
													</g>
												</g>
											</g>
										</g>
									</g>
								</g>
							</g>
						</g>
					</g>
				</g>
				<g>
					<g>
						<g>
							<g>
								<g>
									<g>
										<g>
											<g>
												<g>
													<g>
														<g>
															<path class="st2" d="M587.81,692.39c-0.12-0.36,1.76-1.15,4.01-0.33c2.25,0.8,3.3,2.65,3,2.86
																c-0.3,0.27-1.57-0.85-3.43-1.5C589.54,692.73,587.89,692.79,587.81,692.39z"/>
														</g>
													</g>
												</g>
											</g>
										</g>
									</g>
								</g>
							</g>
						</g>
					</g>
				</g>
				<g>
					<g>
						<g>
							<g>
								<g>
									<g>
										<g>
											<g>
												<g>
													<g>
														<g>
															<path class="st2" d="M609.11,675.29c-0.37-0.13-0.04-2.08-0.44-4.38c-0.36-2.31-1.29-4.04-0.98-4.29
																c0.26-0.27,1.89,1.34,2.32,4.06C610.47,673.39,609.44,675.46,609.11,675.29z"/>
														</g>
													</g>
												</g>
											</g>
										</g>
									</g>
								</g>
							</g>
						</g>
					</g>
				</g>
			</g>
			<g>
				<path class="st2" d="M604.36,498.12c0,0-0.11,39.57,17.85,52.95c17.96,13.37,80.27,63.65,80.27,63.65l-99.46,17l7.43,46.12
					c0,0,134.27-13.55,150.7-19.05c16.43-5.5,28.25-33.3,15.39-52.62c-6.46-9.7-73.3-104.72-73.3-104.72l-2-25.5l-84.26,5.33
					L604.36,498.12z"/>
			</g>
			<g>
				<g>
					<path class="st5" d="M610.46,677.83c-0.02,0-0.08-0.27-0.19-0.81c-0.11-0.59-0.26-1.38-0.44-2.38
						c-0.37-2.16-0.91-5.24-1.58-9.17c-1.34-8.03-3.25-19.54-5.61-33.69l-0.06-0.38l0.39-0.07c23.9-4.12,55.82-9.63,90.81-15.66
						c2.96-0.5,5.89-1.01,8.63-1.47l-0.25,0.93c-14.01-11.58-27.35-22.48-39.49-32.28c-6.1-4.86-11.88-9.48-17.28-13.79
						c-5.41-4.29-10.61-8.11-14.91-12.14c-8.64-8-14.3-15.71-17.72-21.27c-1.72-2.78-2.86-5.05-3.59-6.6
						c-0.37-0.77-0.61-1.38-0.78-1.79c-0.16-0.41-0.23-0.63-0.21-0.63s0.11,0.2,0.3,0.59c0.19,0.39,0.47,0.98,0.87,1.74
						c0.79,1.52,1.98,3.74,3.74,6.48c3.51,5.46,9.23,13.06,17.87,20.94c4.3,3.96,9.5,7.73,14.95,12
						c5.46,4.25,11.26,8.84,17.36,13.72c12.18,9.76,25.54,20.63,39.57,32.21l0.89,0.73l-1.13,0.19c-2.74,0.47-5.67,0.97-8.63,1.48
						c-35.01,5.93-66.94,11.34-90.86,15.4l0.32-0.45c2.21,14.18,4.01,25.7,5.26,33.75c0.59,3.95,1.05,7.04,1.38,9.21
						c0.14,1.01,0.25,1.8,0.33,2.4C610.45,677.55,610.48,677.83,610.46,677.83z"/>
				</g>
			</g>
			<g>
				<g>
					<path class="st5" d="M729.32,617.56c-0.09,0.31-5.91-1.41-13.29-2.17c-7.38-0.81-13.43-0.35-13.46-0.67
						c-0.01-0.13,1.49-0.42,3.95-0.59c2.46-0.17,5.87-0.18,9.62,0.21c3.74,0.4,7.08,1.13,9.45,1.81
						C727.96,616.84,729.36,617.44,729.32,617.56z"/>
				</g>
			</g>
		</g>
		<g>
			<g>
				<g>
					<g>
						<g>
							<g>
								<g>
									<g>
										<g>
											<g>
												<g>
													<path class="st2" d="M667.91,166.09c1.12-3.67,4.79-6.38,8.61-6.37c3.71-4.25,10.51-5.35,15.37-2.49
														c2.92-2.55,7.2-3.41,10.87-2.19c3.68,1.22,6.62,4.47,7.47,8.26c3.69-1.3,8.15,0.03,10.55,3.15
														c2.4,3.12,2.56,7.79,0.37,11.06c4.39,0.6,7.97,4.87,7.83,9.32c-0.14,4.45-4,8.46-8.41,8.75l-49.11-19.32
														C668.3,174.08,666.78,169.75,667.91,166.09z"/>
												</g>
											</g>
										</g>
									</g>
								</g>
							</g>
						</g>
					</g>
				</g>
			</g>
			<g>
				<g>
					<g>
						<g>
							<g>
								<g>
									<g>
										<g>
											<g>
												<g>
													<g>
														<g>
															<g>
																<g>
																	<path class="st3" d="M722.09,196.58c-5.16-19.42-24.27-31.62-43.92-28.05l-1.95,0.35
																		c-20.83,5.06-23.93,25.77-18.28,46.58l16.13,78.24l0,0l38.73,23.01l4.66-17.08l-0.05-27.87
																		c0,0,19.67-6.84,16.22-27.24C731.96,234.65,726.89,214.64,722.09,196.58z"/>
																</g>
															</g>
														</g>
													</g>
												</g>
											</g>
										</g>
									</g>
								</g>
							</g>
						</g>
					</g>
					<g>
						<g>
							<g>
								<g>
									<g>
										<g>
											<g>
												<g>
													<g>
														<g>
															<g>
																<g>
																	<g>
																		<g>
																			<path class="st4" d="M717.56,271.69c0,0-12.78,3.13-27.94-2.99c0,0,7.92,14.64,27.78,9.14L717.56,271.69z"/>
																		</g>
																	</g>
																</g>
															</g>
														</g>
													</g>
												</g>
											</g>
										</g>
									</g>
								</g>
							</g>
						</g>
					</g>
					<g>
						<g>
							<g>
								<g>
									<g>
										<g>
											<g>
												<g>
													<g>
														<g>
															<g>
																<g>
																	<g>
																		<g>
																			<g>
																				<g>
																					<g>
																						<path class="st2" d="M719.59,215.75c0.33,1.52-0.68,3.06-2.25,3.44c-1.57,0.37-3.12-0.55-3.45-2.08
																							c-0.33-1.53,0.68-3.07,2.25-3.44C717.71,213.3,719.26,214.23,719.59,215.75z"/>
																					</g>
																				</g>
																			</g>
																		</g>
																	</g>
																</g>
															</g>
														</g>
													</g>
												</g>
											</g>
										</g>
									</g>
								</g>
							</g>
						</g>
					</g>
					<g>
						<g>
							<g>
								<g>
									<g>
										<g>
											<g>
												<g>
													<g>
														<g>
															<g>
																<g>
																	<g>
																		<g>
																			<g>
																				<g>
																					<g>
																						<g>
																							<path class="st2" d="M719.96,208.32c-0.29,0.44-2.77-0.79-5.88-0.21c-3.11,0.53-5.1,2.55-5.51,2.23
																								c-0.2-0.14,0.04-0.89,0.91-1.8c0.85-0.9,2.39-1.91,4.33-2.25c1.94-0.34,3.7,0.08,4.77,0.64
																								C719.66,207.49,720.11,208.12,719.96,208.32z"/>
																						</g>
																					</g>
																				</g>
																			</g>
																		</g>
																	</g>
																</g>
															</g>
														</g>
													</g>
												</g>
											</g>
										</g>
									</g>
								</g>
							</g>
						</g>
					</g>
					<g>
						<g>
							<g>
								<g>
									<g>
										<g>
											<g>
												<g>
													<g>
														<g>
															<g>
																<g>
																	<g>
																		<g>
																			<g>
																				<g>
																					<g>
																						<path class="st2" d="M692.43,221.89c0.33,1.52-0.68,3.06-2.25,3.44c-1.57,0.38-3.12-0.55-3.46-2.08
																							c-0.33-1.52,0.68-3.07,2.25-3.44C690.55,219.43,692.1,220.36,692.43,221.89z"/>
																					</g>
																				</g>
																			</g>
																		</g>
																	</g>
																</g>
															</g>
														</g>
													</g>
												</g>
											</g>
										</g>
									</g>
								</g>
							</g>
						</g>
					</g>
					<g>
						<g>
							<g>
								<g>
									<g>
										<g>
											<g>
												<g>
													<g>
														<g>
															<g>
																<g>
																	<g>
																		<g>
																			<g>
																				<g>
																					<g>
																						<g>
																							<path class="st2" d="M690.13,213.29c-0.29,0.44-2.78-0.79-5.88-0.21c-3.11,0.53-5.1,2.55-5.51,2.23
																								c-0.2-0.14,0.04-0.89,0.91-1.8c0.85-0.9,2.39-1.91,4.33-2.25c1.94-0.34,3.7,0.08,4.77,0.64
																								C689.82,212.46,690.27,213.09,690.13,213.29z"/>
																						</g>
																					</g>
																				</g>
																			</g>
																		</g>
																	</g>
																</g>
															</g>
														</g>
													</g>
												</g>
											</g>
										</g>
									</g>
								</g>
							</g>
						</g>
					</g>
					<g>
						<g>
							<g>
								<g>
									<g>
										<g>
											<g>
												<g>
													<g>
														<g>
															<g>
																<g>
																	<g>
																		<g>
																			<g>
																				<g>
																					<g>
																						<path class="st2" d="M704.58,234.62c-0.05-0.18,1.83-0.86,4.88-1.84c0.78-0.23,1.5-0.52,1.54-1.09
																							c0.08-0.61-0.41-1.41-0.96-2.27c-1.1-1.8-2.25-3.68-3.45-5.66c-4.83-8.07-8.49-14.76-8.16-14.95
																							c0.33-0.19,4.51,6.19,9.34,14.26c1.17,1.99,2.29,3.89,3.36,5.71c0.47,0.85,1.17,1.79,0.98,3.06
																							c-0.11,0.64-0.61,1.17-1.09,1.4c-0.48,0.25-0.93,0.34-1.31,0.43C706.58,234.42,704.63,234.79,704.58,234.62z"
																							/>
																					</g>
																				</g>
																			</g>
																		</g>
																	</g>
																</g>
															</g>
														</g>
													</g>
												</g>
											</g>
										</g>
									</g>
								</g>
							</g>
						</g>
					</g>
					<g>
						<g>
							<g>
								<g>
									<g>
										<g>
											<g>
												<g>
													<g>
														<g>
															<g>
																<g>
																	<g>
																		<g>
																			<g>
																				<g>
																					<g>
																						<path class="st2" d="M695.82,238.44c0.5-0.12,1.12,3.27,4.45,5.16c3.32,1.89,6.85,0.86,6.97,1.33
																							c0.09,0.2-0.68,0.8-2.19,1.12c-1.48,0.32-3.74,0.24-5.78-0.92c-2.03-1.16-3.15-2.99-3.52-4.36
																							C695.37,239.37,695.59,238.47,695.82,238.44z"/>
																					</g>
																				</g>
																			</g>
																		</g>
																	</g>
																</g>
															</g>
														</g>
													</g>
												</g>
											</g>
										</g>
									</g>
								</g>
							</g>
						</g>
					</g>
					<g>
						<g>
							<g>
								<g>
									<g>
										<g>
											<g>
												<g>
													<g>
														<g>
															<g>
																<g>
																	<g>
																		<path class="st2" d="M688.55,204.35c-0.22,0.88-3.03,0.64-6.28,1.28c-3.26,0.57-5.83,1.82-6.31,1.07
																			c-0.22-0.36,0.19-1.2,1.21-2.1c1.01-0.9,2.65-1.79,4.6-2.16c1.95-0.36,3.77-0.12,5,0.37
																			C687.99,203.29,688.64,203.93,688.55,204.35z"/>
																	</g>
																</g>
															</g>
														</g>
													</g>
												</g>
											</g>
										</g>
									</g>
								</g>
							</g>
						</g>
					</g>
					<g>
						<g>
							<g>
								<g>
									<g>
										<g>
											<g>
												<g>
													<g>
														<g>
															<g>
																<g>
																	<g>
																		<path class="st2" d="M717.7,199.87c-0.35,0.84-2.65,0.68-5.19,1.33c-2.56,0.56-4.55,1.72-5.23,1.13
																			c-0.31-0.3-0.16-1.09,0.6-2c0.75-0.91,2.14-1.86,3.9-2.27c1.75-0.41,3.43-0.18,4.5,0.3
																			C717.36,198.83,717.85,199.47,717.7,199.87z"/>
																	</g>
																</g>
															</g>
														</g>
													</g>
												</g>
											</g>
										</g>
									</g>
								</g>
							</g>
						</g>
					</g>
					<g>
						<g>
							<g>
								<g>
									<g>
										<g>
											<g>
												<g>
													<g>
														<g>
															<g>
																<g>
																	<path class="st2" d="M718.45,187.6c0,0-7.65-11.78-14.3-13.64c-8.05-2.26-9.75,6.49-17.16,5.79
																		c-7.41-0.7-15.1-2.87-21.31,3.92c-6.8,7.43-2.34,10.97-1.18,20.09c4.67,36.98-0.09,48.54-5.12,31.64
																		c-0.55-1.85-6.04-2.41-8.26-10.25c-2.88-10.17-5.56-22.67-4.6-30.43c0.81-6.54,3.55-11.46,8.98-17.32
																		c8.58-9.25,22.2-11.89,31.64-12.64C696.58,164,716.39,171.48,718.45,187.6z"/>
																</g>
															</g>
														</g>
													</g>
												</g>
											</g>
										</g>
									</g>
								</g>
							</g>
						</g>
					</g>
					<g>
						<g>
							<g>
								<g>
									<g>
										<g>
											<g>
												<g>
													<g>
														<g>
															<g>
																<g>
																	<path class="st3" d="M663.12,234.14c-0.7-3.12-3.84-5.11-6.9-4.25c-3.71,1.05-7.52,3.97-5.84,11.77
																		c2.97,13.84,16.17,8.01,16.11,7.61C666.44,248.99,664.41,239.92,663.12,234.14z"/>
																</g>
															</g>
														</g>
													</g>
												</g>
											</g>
										</g>
									</g>
								</g>
							</g>
						</g>
					</g>
					<g>
						<g>
							<g>
								<g>
									<g>
										<g>
											<g>
												<g>
													<g>
														<g>
															<g>
																<g>
																	<path class="st4" d="M662.37,244.7c-0.07-0.03-0.2,0.22-0.57,0.49c-0.36,0.27-1.01,0.54-1.78,0.42
																		c-1.57-0.22-3.29-2.28-3.89-4.76c-0.3-1.25-0.3-2.51-0.07-3.59c0.2-1.1,0.7-1.95,1.4-2.24
																		c0.69-0.33,1.3,0,1.56,0.36c0.27,0.35,0.24,0.64,0.32,0.65c0.05,0.03,0.24-0.3,0.01-0.84
																		c-0.12-0.26-0.35-0.55-0.73-0.75c-0.39-0.2-0.9-0.23-1.4-0.07c-1.04,0.3-1.79,1.49-2.04,2.68
																		c-0.31,1.21-0.35,2.63,0,4.03c0.69,2.77,2.67,5.07,4.78,5.22c1.02,0.05,1.77-0.42,2.11-0.84
																		C662.42,245.04,662.43,244.72,662.37,244.7z"/>
																</g>
															</g>
														</g>
													</g>
												</g>
											</g>
										</g>
									</g>
								</g>
							</g>
						</g>
					</g>
				</g>
				<g>
					<g>
						<g>
							<g>
								<g>
									<g>
										<g>
											<g>
												<g>
													<g>
														<g>
															<path class="st2" d="M655.93,207.59c2.02,0.91,4.15,1.83,6.35,1.66c2.2-0.18,4.45-1.88,4.43-4.1
																c-0.01-1-0.45-2.08,0.05-2.94c0.59-1.03,2.04-1,3.22-1.09c4.1-0.3,7.7-3.91,8.01-8.03c1.31,1.36,3.69,0.86,5.06-0.43
																c1.37-1.29,2.07-3.12,3.03-4.74c0.96-1.62,2.44-3.18,4.32-3.25c1.05-0.04,2.12,0.4,3.13,0.12
																c1.79-0.49,2.29-2.79,2.23-4.66c-0.05-1.86-0.22-4.02,1.14-5.28c1.26-1.17,3.2-0.98,4.92-1.04
																c1.72-0.06,3.81-0.84,3.93-2.57c0.07-0.9-0.46-1.75-1.08-2.41c-2.77-3.02-7.75-3.68-11.2-1.49
																c-2.19-4.35-7.11-7.16-11.95-6.8c-4.83,0.36-9.29,3.85-10.8,8.48c-3.41-2.14-7.86-2.49-11.55-0.9
																c-3.69,1.58-6.52,5.05-7.33,9c-3.53-0.28-7.13,1.73-8.76,4.88c-1.63,3.15-1.2,7.27,1.06,10.02
																c-2.23,1.88-3.91,4.75-3.43,7.64c0.47,2.89,3.78,5.25,6.41,3.99c-0.71,2.45,0.75,5.32,3.14,6.19
																c2.39,0.86,5.33-0.43,6.32-2.78"/>
														</g>
													</g>
												</g>
											</g>
										</g>
									</g>
								</g>
							</g>
						</g>
					</g>
				</g>
			</g>
			<g>
				<g>
					<g>
						<g>
							<g>
								<g>
									<g>
										<g>
											<g>
												<g>
													<g>
														<path class="st5" d="M646.1,203.8c-0.05-0.03-0.04,1.22,1.35,2.52c0.68,0.61,1.76,1.19,3.07,1.16
															c1.28-0.02,2.76-0.6,3.74-1.87l-0.6,0.02c0.9,1.07,2.03,2.13,3.39,2.97c0.88,0.53,1.82,0.95,2.81,1.12
															c0.97,0.2,2.01,0.05,2.83-0.25c1.72-0.51,3.08-1.74,3.57-3.03c0.53-1.27,0.57-2.37,0.59-3.1
															c0.01-0.74-0.05-1.14-0.1-1.14c-0.06,0-0.11,0.4-0.22,1.12c-0.11,0.71-0.25,1.76-0.8,2.88
															c-0.95,2.23-5.04,4.03-8.28,1.71c-1.27-0.78-2.35-1.77-3.22-2.77l-0.32-0.37l-0.28,0.38
															c-0.79,1.06-2.04,1.62-3.14,1.68c-1.12,0.07-2.08-0.37-2.75-0.87C646.41,204.88,646.21,203.75,646.1,203.8z"/>
													</g>
												</g>
											</g>
										</g>
									</g>
								</g>
							</g>
						</g>
					</g>
				</g>
			</g>
			<g>
				<g>
					<g>
						<g>
							<g>
								<g>
									<g>
										<g>
											<g>
												<g>
													<g>
														<path class="st5" d="M666.47,167.27c0,0.05,0.38,0.03,1.04,0.18c0.65,0.16,1.64,0.52,2.48,1.45l0.21,0.24l0.14-0.29
															c0.98-1.98,2.74-4.62,5.7-6.66c1.47-1.01,3.25-1.84,5.23-2.19c1.97-0.37,4.14-0.17,6.17,0.62
															c1.58,0.61,2.98,1.55,4.09,2.69c1.09,1.16,1.88,2.52,2.28,3.92l0.12,0.43l0.4-0.19c1.98-0.95,4.17-0.93,5.88-0.34
															c1.74,0.59,2.98,1.73,3.76,2.82c1.56,2.25,1.47,4.01,1.61,3.97c0.03,0,0.08-0.41-0.04-1.17
															c-0.12-0.75-0.42-1.86-1.2-3.06c-0.77-1.18-2.06-2.47-3.93-3.15c-1.84-0.68-4.21-0.77-6.41,0.26l0.52,0.24
															c-0.41-1.53-1.26-3.02-2.43-4.27c-1.19-1.24-2.69-2.25-4.37-2.9c-2.16-0.84-4.5-1.05-6.6-0.63
															c-2.11,0.4-3.97,1.3-5.49,2.38c-3.06,2.2-4.79,4.98-5.69,7.06l0.36-0.06c-0.98-0.98-2.06-1.28-2.76-1.37
															C666.84,167.14,666.47,167.24,666.47,167.27z"/>
													</g>
												</g>
											</g>
										</g>
									</g>
								</g>
							</g>
						</g>
					</g>
				</g>
			</g>
		</g>
		<g>
			<g>
				<path class="st7" d="M689.58,505.32c1.94,0.18,8.52,2.5,17.08-13.33c8.56-15.83,16.78-74.4,16.78-74.4L689.58,505.32z"/>
			</g>
			<g>
				<g>
					<g>
						<path class="st7" d="M726.52,394.9l0.97-56.69l-11.39-43.39c0,0-7.98-12.47-16.68-18.83c-10.34-7.55-18.88-9.24-18.88-9.24
							l-13.05-3.16l-1.4,10.82l37.89,43.48L726.52,394.9z"/>
					</g>
				</g>
				<g>
					<g>
						<path class="st2" d="M666.26,267.35c0,0,31.2,2.68,46.29,40.36c8.1,20.23,13.03,74.54,13.98,83.01
							c0.95,8.47-2.22,27.93-8.01,54.12c-1.13,5.09-5.2,18.49-16.32,50.95c-11.9,34.72-21.39,60.35-21.39,60.35l-99.72-38.58
							l49.59-87.01c0,0-2.62-26.8-2.5-29.37c0.95-19.92-2.92-31.15,3.67-69.45c1.96-11.42,5.93-22.42,11.87-32.43
							c6.27-10.56,10.93-13.71,21.59-21.67L666.26,267.35z"/>
					</g>
				</g>
				<g>
					<g>
						<g>
							<polygon class="st2" points="677,505.07 679.63,484.03 632.08,464.75 623.4,484.84 							"/>
						</g>
					</g>
					<g>
						<g>
							<g>
								<path class="st5" d="M677,505.07c-0.02-0.03-0.39-0.19-1.08-0.47c-0.78-0.31-1.79-0.71-3.04-1.21
									c-2.73-1.07-6.52-2.55-11.21-4.39c-9.58-3.68-22.84-8.79-38.08-14.65l0.3,0.7c2.33-5.39,4.82-11.12,7.37-17.03
									c0.45-1.03,0.89-2.06,1.32-3.06l-0.7,0.29c18.69,7.51,35.46,14.25,47.61,19.13l-0.23-0.39c-0.71,6.4-1.29,11.6-1.7,15.32
									c-0.18,1.75-0.33,3.16-0.44,4.23C677.03,504.51,676.98,505.04,677,505.07c0.02,0.03,0.1-0.44,0.24-1.36
									c0.15-1.04,0.35-2.4,0.6-4.11c0.52-3.77,1.26-9.03,2.16-15.52l0.04-0.28l-0.27-0.11c-12.12-4.96-28.84-11.81-47.48-19.44
									l-0.49-0.2l-0.21,0.49c-0.43,1-0.88,2.03-1.32,3.06c-2.55,5.91-5.02,11.65-7.34,17.04l-0.22,0.51l0.52,0.19
									c15.47,5.73,28.93,10.71,38.65,14.31c4.68,1.7,8.46,3.07,11.18,4.06c1.22,0.43,2.2,0.78,2.96,1.05
									C676.68,504.99,677.02,505.1,677,505.07z"/>
							</g>
						</g>
					</g>
				</g>
				<g>
					<g>
						<path class="st5" d="M716.41,451.88c0.02,0.01-0.03,0.19-0.13,0.55c-0.13,0.41-0.28,0.93-0.48,1.57
							c-0.47,1.45-1.12,3.46-1.95,6.02c-1.76,5.29-4.27,12.81-7.36,22.07c-6.33,18.67-15.04,44.33-24.66,72.68
							c-0.18,0.53-0.36,1.05-0.53,1.54l-0.18,0.52l-0.51-0.2c-27.57-10.73-52.45-20.42-70.52-27.45
							c-8.93-3.53-16.18-6.39-21.27-8.41c-2.44-0.99-4.37-1.77-5.76-2.33c-0.61-0.26-1.1-0.47-1.49-0.63
							c-0.33-0.15-0.5-0.23-0.49-0.25c0.01-0.02,0.19,0.03,0.53,0.15c0.4,0.14,0.9,0.32,1.52,0.53c1.41,0.52,3.36,1.24,5.83,2.15
							c5.12,1.94,12.41,4.7,21.39,8.1c18.11,6.96,43.02,16.54,70.64,27.16l-0.69,0.32c0.17-0.49,0.35-1.01,0.53-1.54
							c9.73-28.31,18.54-53.94,24.95-72.58c3.22-9.21,5.84-16.7,7.68-21.96c0.91-2.53,1.62-4.52,2.14-5.95
							c0.24-0.63,0.43-1.14,0.58-1.54C716.32,452.05,716.39,451.88,716.41,451.88z"/>
					</g>
				</g>
			</g>
			<g>
				<g>
					<g>
						<g>
							<path class="st5" d="M569.82,563.03c0,0,11.79-38.4,21.81-41c10.02-2.6,23.3-3.02,25.65,3.52
								c2.35,6.54,4.27,16.08,3.85,25.73c-0.41,9.65-3.96,23.84-3.96,23.84l-10.24-3.17c0,0,8.01-38.99,5.94-45.38
								c-2.07-6.39-19.08-4.84-22.18,1.79c-3.1,6.62-12.96,37.12-12.96,37.12L569.82,563.03z"/>
						</g>
					</g>
				</g>
				<g>
					<g>
						<g>
							<g>
								<path class="st5" d="M522.76,611.33c3.59-16.09,11.98-51.46,15.68-67.01c1.01-4.24,5.19-6.92,9.47-6.08L644,557.27
									c4.29,0.85,7.13,4.94,6.43,9.26l-10.86,66.8c-0.73,4.5-5.02,7.51-9.5,6.67l-100.89-18.92
									C524.67,620.23,521.76,615.81,522.76,611.33z"/>
							</g>
						</g>
					</g>
					<g>
						<g>
							<g>
								<g>
									<path class="st2" d="M640.55,581.88c0,0-0.03,0.24-0.12,0.72c-0.1,0.51-0.23,1.22-0.41,2.14
										c-0.38,1.93-0.92,4.71-1.62,8.29c-1.44,7.27-3.51,17.74-6.07,30.66c-0.16,0.81-0.33,1.63-0.49,2.46
										c-0.13,0.83-0.45,1.75-1.05,2.44c-0.6,0.69-1.41,1.22-2.33,1.44c-0.91,0.26-1.91,0.06-2.76-0.12
										c-3.53-0.68-7.2-1.39-11-2.12c-7.6-1.47-15.72-3.04-24.26-4.7c-8.54-1.66-17.51-3.4-26.81-5.21
										c-4.65-0.9-9.38-1.82-14.18-2.76c-2.4-0.47-4.82-0.94-7.25-1.41l-1.83-0.36c-0.59-0.13-1.25-0.19-1.88-0.49
										c-1.24-0.55-2.22-1.69-2.54-3.02c-0.14-0.57-0.18-1.17-0.09-1.74c0.09-0.58,0.22-1.07,0.33-1.6
										c0.22-1.05,0.45-2.1,0.67-3.14c0.45-2.09,0.89-4.16,1.33-6.22c0.88-4.12,1.75-8.19,2.61-12.19
										c1.72-8,3.38-15.75,4.96-23.14l0.08-0.35l0.35,0.09c27.32,6.98,50.94,11.99,67.71,15.28c8.38,1.65,15.05,2.88,19.62,3.72
										c2.27,0.42,4.04,0.75,5.26,0.98c0.57,0.11,1.01,0.19,1.34,0.26C640.41,581.84,640.56,581.87,640.55,581.88
										c-0.01,0.01-0.17-0.02-0.48-0.06c-0.33-0.05-0.79-0.12-1.37-0.21c-1.22-0.2-2.97-0.48-5.22-0.84
										c-4.58-0.77-11.27-1.94-19.66-3.53c-16.8-3.17-40.45-8.09-67.8-15.03l0.42-0.26c-1.57,7.4-3.22,15.14-4.93,23.15
										c-0.85,4-1.72,8.07-2.6,12.19c-0.44,2.06-0.88,4.14-1.33,6.22c-0.22,1.04-0.45,2.09-0.67,3.14
										c-0.22,1.08-0.53,2.06-0.24,3.01c0.27,1.12,1.09,2.07,2.13,2.53c0.5,0.24,1.1,0.31,1.73,0.44l1.83,0.36
										c2.43,0.47,4.85,0.95,7.25,1.42c4.8,0.94,9.53,1.86,14.18,2.77c9.29,1.82,18.26,3.58,26.8,5.25
										c8.54,1.68,16.65,3.27,24.25,4.76c3.8,0.75,7.46,1.47,10.99,2.16c0.9,0.19,1.7,0.36,2.52,0.14
										c0.8-0.18,1.52-0.64,2.05-1.25c0.54-0.62,0.81-1.36,0.94-2.19c0.17-0.82,0.34-1.63,0.5-2.44
										c2.66-12.84,4.82-23.24,6.32-30.46c0.76-3.59,1.35-6.39,1.75-8.33c0.2-0.94,0.36-1.66,0.47-2.18
										C640.48,582.14,640.55,581.88,640.55,581.88z"/>
								</g>
							</g>
						</g>
					</g>
					<g>
						<g>
							<g>
								<g>
									<path class="st2" d="M604.72,619.26c0.01-0.05,0.6,0.1,1.73,0.09c1.11-0.04,2.84-0.3,4.61-1.51
										c1.78-1.19,3.36-3.47,3.68-6.54c0.59-3.02,1.26-6.46,2.01-10.25c0.37-1.9,0.77-3.89,1.17-5.96
										c0.52-2.03,0.45-4.24-0.58-6.21c-0.99-1.96-2.87-3.54-5.13-4.13c-2.32-0.52-4.81-0.97-7.3-1.48
										c-10.03-2.01-21.06-4.22-32.63-6.54c-2.78-0.56-5.77,0.43-7.59,2.5c-0.94,1.01-1.57,2.27-1.88,3.58
										c-0.28,1.38-0.57,2.75-0.84,4.11c-0.55,2.73-1.09,5.41-1.63,8.03c-0.27,1.31-0.53,2.61-0.79,3.89
										c-0.23,1.28-0.59,2.57-0.66,3.77c-0.15,2.46,0.91,4.87,2.65,6.42c0.86,0.79,1.88,1.37,2.95,1.72
										c1.07,0.32,2.25,0.5,3.35,0.74c4.45,0.91,8.6,1.76,12.4,2.54c7.54,1.57,13.65,2.84,17.94,3.73
										c2.08,0.45,3.71,0.8,4.87,1.05c0.52,0.12,0.94,0.22,1.26,0.29C604.58,619.21,604.73,619.25,604.72,619.26
										c0,0.01-0.15,0-0.44-0.05c-0.33-0.06-0.75-0.13-1.28-0.22c-1.17-0.22-2.81-0.53-4.9-0.92c-4.3-0.84-10.43-2.03-17.98-3.5
										c-3.8-0.75-7.95-1.57-12.41-2.45c-1.12-0.24-2.23-0.39-3.42-0.74c-1.16-0.37-2.26-1-3.19-1.84
										c-1.88-1.67-3.04-4.26-2.89-6.93c0.08-1.35,0.43-2.58,0.66-3.87c0.26-1.28,0.52-2.58,0.78-3.9
										c0.53-2.63,1.06-5.31,1.61-8.04c0.28-1.37,0.56-2.75,0.84-4.14c0.34-1.43,1.02-2.81,2.05-3.91
										c1.99-2.26,5.25-3.35,8.28-2.73c11.57,2.34,22.58,4.57,32.61,6.59c2.51,0.52,4.94,0.97,7.34,1.52
										c2.44,0.65,4.46,2.37,5.51,4.48c1.1,2.1,1.15,4.56,0.6,6.6c-0.42,2.07-0.83,4.05-1.22,5.95
										c-0.78,3.78-1.49,7.21-2.11,10.22c-0.15,0.75-0.3,1.48-0.51,2.19c-0.24,0.69-0.52,1.34-0.89,1.9
										c-0.71,1.14-1.62,2.01-2.53,2.61c-1.86,1.21-3.64,1.42-4.77,1.42C605.3,619.46,604.72,619.26,604.72,619.26z"/>
								</g>
							</g>
						</g>
					</g>
					<g class="st8">
						<g>
							<g>
								<g>
									<path d="M538.14,612.46c26.84,14.12,57.87,20.15,88.05,17.1L538.14,612.46z"/>
								</g>
							</g>
						</g>
					</g>
					<g>
						<g>
							<g>
								<path class="st7" d="M598.51,592.43l-11.34-2.28c-1.78-0.36-2.93-2.09-2.57-3.86l0,0c0.36-1.78,2.09-2.93,3.86-2.57
									L599.8,586c1.78,0.36,2.93,2.09,2.57,3.86l0,0C602.01,591.64,600.28,592.79,598.51,592.43z"/>
							</g>
						</g>
					</g>
				</g>
				<g>
					<g>
						<g>
							<g>
								<path class="st3" d="M616.51,513.4c0,0,2.92,4.5,3.62,7.25c0.7,2.75,0.25,13.72,0.25,13.72s-2.38,1.2-4.3-5.18
									c-1.92-6.38-2.17-9.39-2.17-9.39L616.51,513.4z"/>
							</g>
						</g>
					</g>
					<g>
						<g>
							<g>
								<path class="st3" d="M616.21,533.78l0.46-20.1l-7.74-14.85l-24.58-0.47l-0.88,24.35c0,0,3.61,10.45,5.33,12.42
									c1.72,1.97,5.17,0.51,5.17,0.51c1.86,2.91,6.95,1.84,6.95,1.84c2.51,2.97,6.39,0.17,6.39,0.17s3.41,3.13,4.98,2.93
									c0.55-0.07,1.12-0.49,1.65-1.05C615.4,537.97,616.16,535.9,616.21,533.78z"/>
							</g>
						</g>
					</g>
					<g>
						<g>
							<g>
								<g>
									<path class="st4" d="M592.08,530.41c0.23-0.08,0.81,1,1.29,2.4c0.48,1.4,0.67,2.61,0.44,2.69c-0.23,0.08-0.81-1-1.29-2.4
										C592.05,531.69,591.85,530.49,592.08,530.41z"/>
								</g>
							</g>
						</g>
					</g>
					<g>
						<g>
							<g>
								<g>
									<path class="st4" d="M598.46,530.12c0.25-0.03,0.66,1.68,1.28,3.73c0.6,2.06,1.18,3.72,0.95,3.83
										c-0.21,0.11-1.18-1.44-1.81-3.58C598.25,531.97,598.22,530.14,598.46,530.12z"/>
								</g>
							</g>
						</g>
					</g>
					<g>
						<g>
							<g>
								<g>
									<path class="st4" d="M605.72,530.77c0.25,0,0.45,1.53,0.8,3.38c0.34,1.85,0.71,3.35,0.47,3.44
										c-0.22,0.09-0.99-1.33-1.35-3.28C605.28,532.37,605.48,530.76,605.72,530.77z"/>
								</g>
							</g>
						</g>
					</g>
					<g>
						<g>
							<g>
								<g>
									<path class="st4" d="M616.38,519.99c0.25,0.01,0.4,3.43,0.34,7.64c-0.06,4.21-0.3,7.62-0.55,7.62
										c-0.25-0.01-0.4-3.43-0.34-7.64C615.89,523.39,616.13,519.98,616.38,519.99z"/>
								</g>
							</g>
						</g>
					</g>
					<g>
						<g>
							<g>
								<g>
									<path class="st4" d="M591.73,526.37c0.07,0.09-0.09,0.38-0.52,0.64c-0.43,0.26-1.15,0.46-1.94,0.3
										c-0.79-0.17-1.37-0.64-1.66-1.06c-0.29-0.42-0.32-0.74-0.22-0.8c0.21-0.12,0.89,0.75,2.06,0.98
										C590.61,526.7,591.58,526.17,591.73,526.37z"/>
								</g>
							</g>
						</g>
					</g>
					<g>
						<g>
							<g>
								<g>
									<path class="st4" d="M599.15,527.59c0.06,0.1-0.15,0.38-0.64,0.61c-0.49,0.24-1.26,0.38-2.09,0.21
										c-0.82-0.17-1.48-0.6-1.84-1.01c-0.36-0.41-0.45-0.75-0.35-0.81c0.21-0.15,1.03,0.7,2.37,0.95
										C597.93,527.83,599.02,527.37,599.15,527.59z"/>
								</g>
							</g>
						</g>
					</g>
					<g>
						<g>
							<g>
								<g>
									<path class="st4" d="M613.36,526.1c0.09-0.11,0.57,0.55-0.01,1.4c-0.58,0.77-1.69,1.31-3,1.44
										c-1.32,0.12-2.5-0.28-3.2-0.74c-0.72-0.46-1-0.93-0.92-1c0.14-0.19,1.75,1.08,4.04,0.85c1.1-0.09,2.12-0.52,2.6-0.96
										C613.35,526.65,613.25,526.14,613.36,526.1z"/>
								</g>
							</g>
						</g>
					</g>
				</g>
			</g>
			<g>
				<g>
					<g>
						<g>
							<path class="st2" d="M689.88,337.08c-9.66,10.05-69.6,68.9-69.6,68.9s-3.48,95.09-5.21,95.51c-1.73,0.42-36.2-2.42-36.2-2.42
								s-4.83-100.81-0.81-112.31c4.01-11.5,55.29-78.73,56.4-80.13c1.11-1.4,6.99-11.69,26.61-16.72
								c22.98-5.9,32.62,5.11,36.48,16.42c3.32,9.73-3.02,24.86-6.1,28.93C690.95,335.9,690.44,336.5,689.88,337.08z"/>
						</g>
						<g>
							<g>
								<path class="st5" d="M689.88,337.08c0,0,0.29-0.39,0.88-1.12c0.64-0.69,1.41-1.86,2.24-3.48c1.63-3.25,3.81-8.28,4.88-15.14
									c0.49-3.4,0.67-7.37-0.73-11.33c-1.41-3.94-3.64-8.08-7.25-11.4c-1.79-1.67-3.97-3-6.35-4.03
									c-2.39-1.06-5.07-1.53-7.82-1.85c-5.55-0.41-11.44,0.58-17.37,2.34c-5.91,1.79-11.92,4.51-17.14,8.77
									c-2.63,2.14-4.85,4.69-6.87,7.63c-2.13,2.81-4.3,5.68-6.51,8.6c-8.79,11.7-18.12,24.25-27.7,37.63
									c-4.78,6.69-9.66,13.57-14.38,20.76c-2.32,3.6-4.76,7.26-6.61,11.14c-0.21,0.49-0.48,0.96-0.65,1.47l-0.32,1.57
									c-0.26,1.03-0.37,2.12-0.46,3.22l-0.3,3.3l-0.15,3.34c-0.64,17.86-0.12,36.42,0.39,55.39c0.46,15.41,1.04,30.52,1.71,45.17
									l-0.48-0.49c6.25,0.49,12.42,0.97,18.51,1.45c3.05,0.21,6.07,0.43,9.08,0.64c1.5,0.09,3,0.18,4.49,0.27l2.23,0.1l1.1,0.02
									l0.47-0.02c0.02,0.03,0.32-0.09-0.03,0.08c-0.09,0.14,0-0.06,0-0.06c0.55-2.75,0.7-5.8,0.95-8.67
									c0.2-2.91,0.39-5.8,0.58-8.67c0.32-5.74,0.63-11.38,0.93-16.91c1.11-22.14,1.94-42.59,2.66-60.81l0.01-0.16l0.11-0.11
									c21.44-21.12,38.87-38.29,50.97-50.21c6.04-5.91,10.75-10.52,13.97-13.68c1.59-1.54,2.81-2.72,3.66-3.54
									C689.43,337.47,689.88,337.08,689.88,337.08s-0.39,0.44-1.19,1.26c-0.83,0.84-2.02,2.05-3.58,3.62
									c-3.19,3.19-7.84,7.85-13.82,13.83c-12.04,11.98-29.4,29.25-50.73,50.47l0.12-0.27c-0.66,18.22-1.44,38.67-2.51,60.83
									c-0.3,5.54-0.6,11.18-0.9,16.93c-0.19,2.87-0.38,5.77-0.57,8.69c-0.26,2.94-0.36,5.81-0.98,8.89
									c-0.08,0.16-0.02,0.17-0.22,0.45c-0.16,0.18-0.38,0.24-0.38,0.22l-0.16,0.01l-0.64,0.04l-1.13-0.02l-2.25-0.09
									c-1.5-0.09-3-0.18-4.5-0.26c-3.01-0.21-6.04-0.42-9.09-0.63c-6.09-0.47-12.27-0.95-18.52-1.44l-0.46-0.04l-0.02-0.46
									c-0.68-14.66-1.27-29.77-1.73-45.19c-0.51-18.99-1.02-37.53-0.36-55.47l0.16-3.36l0.3-3.34c0.09-1.11,0.2-2.22,0.48-3.34
									l0.35-1.67c0.18-0.53,0.46-1.03,0.68-1.55c1.94-4.05,4.37-7.66,6.71-11.29c4.75-7.21,9.63-14.09,14.43-20.78
									c9.61-13.37,18.97-25.9,27.79-37.59c2.22-2.91,4.4-5.78,6.54-8.59c1.05-1.36,2.06-2.87,3.25-4.15
									c1.17-1.31,2.46-2.48,3.77-3.58c5.35-4.33,11.47-7.07,17.45-8.86c5.99-1.75,11.97-2.74,17.64-2.29
									c2.81,0.34,5.55,0.84,8,1.94c2.44,1.08,4.68,2.46,6.51,4.18c3.69,3.43,5.92,7.66,7.32,11.67c1.41,4.09,1.19,8.13,0.66,11.56
									c-1.15,6.92-3.4,11.94-5.1,15.18c-0.87,1.62-1.68,2.78-2.35,3.45C690.21,336.74,689.88,337.08,689.88,337.08z"/>
							</g>
						</g>
					</g>
				</g>
			</g>
			<g>
				<g>
					<path class="st5" d="M723.88,380.62c-0.03,0.01-0.17-0.38-0.41-1.13c-0.26-0.86-0.59-1.95-1-3.31
						c-0.86-3.01-2.05-7.18-3.51-12.3c-2.91-10.56-6.91-25.05-11.4-41.33l-0.06-0.22l0.13-0.2c1.13-1.75,2.32-3.6,3.53-5.48
						l0.92-1.43l0.39,0.81c-2.3-0.21-4.56-0.43-6.72-0.63l-0.34-0.03l-0.11-0.33c-1.25-3.9-2.64-7.65-4.17-11.16
						c-1.53-3.5-3.18-6.82-5.21-9.6c-2.01-2.75-4.97-4.42-7.59-5.99c-2.68-1.52-5.26-2.79-7.61-3.92
						c-4.73-2.22-8.61-3.84-11.29-4.96c-1.26-0.52-2.28-0.95-3.07-1.28c-0.7-0.29-1.06-0.46-1.05-0.49c0.01-0.03,0.4,0.07,1.12,0.31
						c0.72,0.24,1.78,0.61,3.14,1.11c2.72,1.01,6.65,2.53,11.44,4.67c2.39,1.09,4.99,2.33,7.73,3.84c2.66,1.55,5.72,3.21,7.93,6.15
						c2.14,2.87,3.83,6.22,5.39,9.76c1.56,3.55,2.97,7.3,4.25,11.26l-0.45-0.37c2.16,0.2,4.42,0.41,6.72,0.62l0.87,0.08l-0.47,0.73
						l-0.92,1.43c-1.21,1.88-2.41,3.73-3.53,5.48l0.07-0.42c4.36,16.31,8.24,30.83,11.07,41.42c1.33,5.16,2.41,9.35,3.2,12.38
						c0.33,1.38,0.6,2.49,0.82,3.36C723.84,380.2,723.91,380.61,723.88,380.62z"/>
				</g>
			</g>
			<g>
				<g>
					<path class="st6" d="M716.89,320.02c-11.76,6.94-21.31,6.89-40.94,5.23c-13.61-1.15-25.53-5.05-39.18-5.47
						c-19.67-0.6-34.41,5.4-52.33,13.52l-13.21,15.62l24.8,7.5c0,0,23.8-13.53,54.3-11.87c30.5,1.66,58.98-6.64,69.07-14.35
						l3.46-9.63l-1.32-5.01l-4.18-0.39L716.89,320.02z"/>
				</g>
				<g>
					<g>
						<path class="st2" d="M716.89,320.02c0,0,0-0.44,0.06-1.26c0.07-0.86,0.17-2.06,0.29-3.6l0.01-0.12l0.13,0.01
							c1.18,0.1,2.58,0.21,4.18,0.34l0.12,0.01l0.03,0.12c0.4,1.46,0.85,3.15,1.36,5l0.02,0.06l-0.02,0.06
							c-0.99,2.82-2.13,6.04-3.4,9.65l-0.03,0.08l-0.07,0.05c-2.69,2.06-5.98,3.74-9.61,5.3c-3.65,1.53-7.65,2.97-12,4.16
							c-8.68,2.42-18.64,4.23-29.56,4.98c-5.46,0.33-11.15,0.5-17.03,0.2c-5.84-0.24-11.87-0.18-18.03,0.56
							c-6.15,0.71-12.4,2.01-18.63,3.87c-6.21,1.87-12.49,4.22-18.42,7.38l-0.2,0.11l-0.21-0.06c-4.63-1.4-9.55-2.89-14.52-4.39
							c-3.46-1.05-6.89-2.08-10.28-3.11l-0.77-0.23l0.52-0.61c4.5-5.32,8.91-10.53,13.21-15.62l0.08-0.09l0.11-0.05
							c8.84-4,17.52-7.76,26.27-10.22c8.73-2.49,17.48-3.54,25.73-3.29c8.27,0.2,15.94,1.72,23.03,3.04
							c7.1,1.37,13.69,2.39,19.77,2.8c6.06,0.49,11.54,0.85,16.32,0.69c4.78-0.11,8.85-0.81,12.05-1.77
							c3.2-0.95,5.54-2.08,7.12-2.84c0.74-0.38,1.32-0.69,1.75-0.91C716.66,320.12,716.87,320.01,716.89,320.02
							c0.01,0.01-0.17,0.13-0.55,0.36c-0.38,0.23-0.96,0.59-1.74,1.02c-1.55,0.82-3.88,2.01-7.1,3.03
							c-3.21,1.03-7.32,1.79-12.14,1.95c-4.82,0.21-10.32-0.1-16.39-0.55c-6.09-0.37-12.76-1.35-19.86-2.69
							c-7.1-1.28-14.74-2.75-22.91-2.92c-8.16-0.22-16.8,0.85-25.44,3.33c-8.66,2.45-17.29,6.21-26.11,10.21l0.18-0.14
							c-4.3,5.09-8.71,10.31-13.2,15.63l-0.25-0.84c3.4,1.03,6.83,2.06,10.28,3.11c4.97,1.5,9.9,2.99,14.52,4.39l-0.41,0.05
							c6.07-3.23,12.36-5.57,18.64-7.46c6.29-1.87,12.6-3.17,18.81-3.88c6.21-0.74,12.32-0.77,18.19-0.52
							c5.84,0.32,11.5,0.17,16.93-0.14c10.86-0.7,20.78-2.45,29.42-4.8c4.33-1.16,8.32-2.55,11.94-4.04
							c3.61-1.51,6.89-3.15,9.53-5.14l-0.09,0.12c1.31-3.59,2.49-6.81,3.52-9.61l-0.01,0.13c-0.47-1.86-0.9-3.55-1.28-5.03
							l0.15,0.13c-1.59-0.17-2.99-0.31-4.17-0.43l0.14-0.11c-0.18,1.56-0.32,2.77-0.43,3.63
							C716.96,319.63,716.89,320.02,716.89,320.02z"/>
					</g>
				</g>
			</g>
		</g>
	</g>
	<g>
		<g>
			<path class="st5" d="M670.42,446.57c-0.1,0.27-9.06-2.68-20.01-6.6c-10.95-3.92-19.75-7.32-19.65-7.6
				c0.1-0.27,9.05,2.68,20.01,6.6C661.72,442.89,670.52,446.3,670.42,446.57z"/>
		</g>
	</g>
</g>
</svg>
